<svg width="95" height="90" viewBox="0 0 95 90" fill="none" xmlns="http://www.w3.org/2000/svg">
<g id="Buttons/Square/Repeat/Hover">
<g id="Button/Square/Fill">
<g id="GroupSmallButton">
<g id="Group">
<path id="Union" fill-rule="evenodd" clip-rule="evenodd" d="M66.3747 1.00098H32.0295C24.3304 1.00098 16.9466 4.02556 11.5025 9.40936C6.05846 14.7932 3 22.0952 3 29.709V55.229C3 56.4487 3.08648 57.6595 3.2561 58.8535V62.817C3.2561 69.7614 6.0288 76.4214 10.9642 81.3318C15.8997 86.2422 22.5936 89.0009 29.5733 89.0009H62.7414C66.6461 89.0029 70.5128 88.2395 74.1208 86.7542C77.7288 85.269 81.0073 83.091 83.769 80.3447C86.5307 77.5984 88.7215 74.3377 90.2162 70.7488C91.7109 67.1599 92.4802 63.3131 92.4802 59.4283V57.57C92.8237 55.7854 93 53.9607 93 52.1181V27.3315C93 20.3482 90.1948 13.6509 85.2016 8.713C80.2084 3.77507 73.4361 1.00098 66.3747 1.00098Z" fill="#444444"/>
<path id="Vector" d="M34.9952 7.17651H64.7116C72.2142 7.17651 79.4094 10.1247 84.7145 15.3724C90.0196 20.6201 93 27.7375 93 35.1589V59.4284C93 63.3132 92.2262 67.16 90.7228 70.7489C89.2194 74.3378 87.0159 77.5985 84.2382 80.3448C81.4604 83.0911 78.1629 85.2691 74.5339 86.7543C70.905 88.2396 67.0158 89.003 63.0885 89.001H29.7277C22.7074 89.001 15.9746 86.2423 11.0105 81.3319C6.04639 76.4215 3 69.6998 3 62.7554V38.4396C3 30.1133 6.60136 22.2593 12.5533 16.3717C18.5053 10.4841 26.5778 7.17651 34.9952 7.17651Z" fill="#3EA6B7"/>
<g id="Vector_2" style="mix-blend-mode:screen">
<path d="M32.0295 1.00098H66.3747C73.4362 1.00098 80.2084 3.77507 85.2016 8.713C90.1948 13.6509 93 20.3482 93 27.3315V52.1181C93 59.8474 89.8973 67.2606 84.3736 72.7289C78.8499 78.1972 71.357 81.2734 63.5412 81.2816H29.3443C22.3574 81.2816 15.6566 78.5368 10.7161 73.6509C5.77555 68.7651 3 62.1386 3 55.229V29.709C3 22.0952 6.05846 14.7932 11.5025 9.40936C16.9466 4.02556 24.3304 1.00098 32.0295 1.00098Z" fill="#9FDEF4"/>
</g>
<g id="Vector_3" style="mix-blend-mode:multiply">
<path d="M72.827 57.3522L21.6201 58.1241C21.6201 58.1241 9.20628 60.4399 4.59766 71.0616C6.3376 76.2838 9.68711 80.8278 14.1704 84.0482C18.6538 87.2686 24.043 89.0016 29.5727 89.0012H62.7408C69.2143 88.9985 75.8991 86.93 81.0607 83.0429C86.2223 79.1558 89.8616 74.1159 91.6219 67.9179C85.353 57.2035 72.827 57.3522 72.827 57.3522Z" fill="#CED6FF"/>
</g>
<path id="Vector_4" d="M34.2285 14.3167H62.8035C68.8058 14.3167 74.5624 16.689 78.8067 20.9118C83.051 25.1346 85.4354 30.8619 85.4354 36.8338V50.1929C85.2414 56.1938 83.3181 62.353 79.0345 66.6148C74.7509 70.8767 68.5604 72.7903 62.594 72.7903H32.0328C26.2362 72.7903 20.677 70.4992 16.5782 66.4212C12.4794 62.3432 10.1768 57.0497 10.1768 51.045V38.2464C10.1768 31.8999 12.7108 25.8132 17.2213 21.3255C21.7319 16.8378 27.8496 14.3167 34.2285 14.3167Z" fill="#037219"/>
<g id="Vector_5" style="mix-blend-mode:multiply">
<path d="M66.0156 1.00098H31.8777C26.0673 0.997618 20.3911 2.73916 15.5918 5.99779C10.7924 9.25642 7.09338 13.8804 4.97852 19.2648C19.173 20.9301 33.4513 21.7909 47.744 21.8431C60.4139 21.8431 76.4114 21.6424 90.245 15.6676C88.1204 11.1149 84.8553 7.8258 80.6021 5.12598C76.3489 2.42615 71.0607 0.999356 66.0156 1.00098Z" fill="#D7E1FF"/>
</g>
<path id="Vector_6" d="M34.2285 10.457H62.8035C68.8058 10.457 74.5624 12.8294 78.8067 17.0522C83.051 21.2749 85.4354 27.0023 85.4354 32.9742V45.4331C85.4354 51.4603 83.0289 57.2407 78.7453 61.5025C74.4617 65.7644 68.6519 68.1587 62.594 68.1587H32.0328C26.2362 68.1587 20.677 65.8677 16.5782 61.7897C12.4794 57.7117 10.1768 52.1807 10.1768 46.4135V34.3868C10.1768 28.0402 12.7108 21.9536 17.2213 17.4659C21.7319 12.9782 27.8496 10.457 34.2285 10.457Z" fill="#1DA052"/>
<path id="Vector_7" style="mix-blend-mode:screen" d="M34.2285 10.457H62.8035C68.8058 10.457 74.5624 12.8294 78.8067 17.0522C83.051 21.2749 85.4354 27.0023 85.4354 32.9742V45.4331C85.4354 51.4603 85.4354 57.3517 80.1983 61.7897C75.9147 66.0516 68.6519 68.1587 62.594 68.1587H32.0328C26.2362 68.1587 19.9006 66.4473 15.8018 62.3692C10.1768 57.3517 10.1768 52.1807 10.1768 46.4135V34.3868C10.1768 28.0402 12.7108 21.9536 17.2213 17.4659C21.7319 12.9782 27.8496 10.457 34.2285 10.457Z" fill="url(#paint0_radial_3_907)"/>
<path id="Vector_8" style="mix-blend-mode:screen" opacity="0.68" d="M32.0327 71.2464H62.5939C76.7072 71.2464 86.7934 61.2113 85.6296 46.1587C68.4757 47.0309 64.6813 55.4218 46.4486 55.4218C29.7675 55.4218 24.7244 46.0584 10.1766 44.8696C7.65556 65.8429 24.724 71.2464 32.0327 71.2464Z" fill="url(#paint1_radial_3_907)"/>
<path id="Vector_9" style="mix-blend-mode:screen" opacity="0.73" d="M64.1924 10.5034C64.2932 26.4746 70.8881 39.5974 85.4355 37.6676V32.9743C85.4345 27.2422 83.2363 21.7263 79.2891 17.5509C75.3419 13.3756 69.9428 10.8552 64.1924 10.5034Z" fill="url(#paint2_radial_3_907)"/>
<path id="Vector_10" style="mix-blend-mode:screen" opacity="0.73" d="M10.208 33.2984C31.327 35.4675 41.7934 21.843 41.7934 10.457H34.2287C28.0402 10.4586 22.0905 12.8334 17.6168 17.0875C13.143 21.3416 10.4895 27.1477 10.208 33.2984Z" fill="url(#paint3_radial_3_907)"/>
<path id="Vector_11" d="M22.8843 62.2591C23.2174 61.7121 22.8932 60.9106 22.1602 60.4688C21.4272 60.027 20.5631 60.1122 20.23 60.6591C19.8969 61.206 20.2211 62.0076 20.9541 62.4494C21.6871 62.8912 22.5512 62.806 22.8843 62.2591Z" fill="#FFF39C"/>
<path id="Vector_12" style="mix-blend-mode:screen" d="M23.8166 57.7145C24.6404 58.1472 25.3167 58.8134 25.7599 59.6286C26.2032 60.4438 26.3935 61.3715 26.3067 62.2943C26.22 63.2172 25.8601 64.0937 25.2726 64.813C24.685 65.5323 23.8963 66.0621 23.0062 66.3353C22.116 66.6086 21.1643 66.613 20.2716 66.3481C19.3789 66.0832 18.5852 65.5608 17.9909 64.8471C17.3967 64.1333 17.0285 63.2602 16.933 62.3382C16.8375 61.4162 17.019 60.4868 17.4545 59.6675C18.0382 58.5694 19.0362 57.7469 20.2292 57.3806C21.4222 57.0144 22.7126 57.1345 23.8166 57.7145Z" fill="url(#paint4_radial_3_907)"/>
<path id="Vector_13" d="M77.8923 22.0233C78.4451 21.6971 78.5779 20.9036 78.1889 20.2509C77.7998 19.5981 77.0363 19.3334 76.4834 19.6596C75.9306 19.9858 75.7978 20.7794 76.1869 21.4321C76.5759 22.0848 77.3395 22.3495 77.8923 22.0233Z" fill="#FFF39C"/>
<path id="Vector_14" style="mix-blend-mode:screen" d="M79.6782 19.6355C81.0748 21.7043 80.9972 24.1899 79.4998 25.1934C78.0024 26.1969 75.6593 25.3401 74.2549 23.279C72.8506 21.218 72.936 18.7247 74.4256 17.7211C75.9153 16.7176 78.2584 17.5745 79.6782 19.6355Z" fill="url(#paint5_radial_3_907)"/>
<path id="Vector_15" style="mix-blend-mode:screen" d="M75.2333 64.2991C72.9057 65.843 70.2678 66.0437 69.3678 64.7159C68.4678 63.3882 69.6393 61.0416 71.9746 59.4745C74.31 57.9075 76.9402 57.7223 77.8402 59.0577C78.7402 60.3931 77.5686 62.7012 75.2333 64.2991Z" fill="url(#paint6_radial_3_907)"/>
<path id="Vector_16" d="M74.223 62.8751C75.1872 62.2161 75.6875 61.2744 75.3405 60.772C74.9936 60.2695 73.9307 60.3964 72.9665 61.0555C72.0023 61.7145 71.502 62.6561 71.849 63.1586C72.1959 63.6611 73.2588 63.5342 74.223 62.8751Z" fill="#DAFFCC"/>
<path id="Vector_17" d="M31.0559 14.5117C31.0815 14.1374 30.6967 13.8065 30.1965 13.7727C29.6964 13.7389 29.2701 14.0149 29.2446 14.3892C29.219 14.7635 29.6037 15.0943 30.1039 15.1282C30.6041 15.162 31.0303 14.886 31.0559 14.5117Z" fill="#FFF39C"/>
<path id="Vector_18" style="mix-blend-mode:screen" d="M30.3108 11.893C30.8571 11.8976 31.3897 12.0633 31.8413 12.369C32.293 12.6748 32.6433 13.1069 32.8481 13.6108C33.0529 14.1147 33.1029 14.6677 32.9918 15.1998C32.8807 15.732 32.6135 16.2194 32.224 16.6004C31.8345 16.9815 31.3401 17.2391 30.8035 17.3406C30.2668 17.4422 29.712 17.3831 29.209 17.1709C28.7061 16.9587 28.2777 16.6029 27.9781 16.1485C27.6784 15.694 27.5209 15.1614 27.5255 14.6179C27.5275 14.2567 27.6013 13.8995 27.7425 13.5668C27.8838 13.2341 28.0898 12.9324 28.3486 12.6792C28.6075 12.426 28.9141 12.2261 29.2509 12.0912C29.5876 11.9563 29.9478 11.8889 30.3108 11.893Z" fill="url(#paint7_radial_3_907)"/>
<path id="Vector_19" d="M25.5707 15.7567C26.0229 15.167 26.0278 14.4142 25.5815 14.0755C25.1352 13.7368 24.4068 13.9403 23.9546 14.53C23.5023 15.1198 23.4975 15.8725 23.9438 16.2113C24.3901 16.55 25.1185 16.3465 25.5707 15.7567Z" fill="#FFF39C"/>
<path id="Vector_20" style="mix-blend-mode:screen" d="M21.7062 12.8421C22.1589 12.1717 22.8012 11.6498 23.552 11.3426C24.3028 11.0354 25.1283 10.9566 25.9241 11.1161C26.7199 11.2757 27.4503 11.6665 28.0229 12.2391C28.5954 12.8117 28.9844 13.5404 29.1407 14.333C29.297 15.1256 29.2135 15.9465 28.9009 16.6919C28.5882 17.4373 28.0604 18.0737 27.3842 18.5206C26.7079 18.9675 25.9137 19.2049 25.1019 19.2026C24.2901 19.2004 23.4972 18.9587 22.8234 18.5081C22.3754 18.2097 21.991 17.8262 21.6922 17.3797C21.3935 16.9331 21.1863 16.4323 21.0825 15.9059C20.9787 15.3795 20.9804 14.8379 21.0874 14.3122C21.1944 13.7864 21.4047 13.2869 21.7062 12.8421Z" fill="url(#paint8_radial_3_907)"/>
<path id="Vector_21" d="M81.7434 24.8052C81.769 24.4309 81.3842 24.1 80.884 24.0662C80.3839 24.0323 79.9576 24.3083 79.9321 24.6826C79.9065 25.0569 80.2912 25.3878 80.7914 25.4216C81.2916 25.4555 81.7178 25.1795 81.7434 24.8052Z" fill="#FFF39C"/>
<path id="Vector_22" style="mix-blend-mode:screen" d="M81.3884 21.8431C82.0011 21.8482 82.5985 22.0337 83.1054 22.376C83.6123 22.7184 84.006 23.2025 84.2369 23.7671C84.4678 24.3317 84.5255 24.9518 84.4028 25.549C84.2801 26.1462 83.9825 26.694 83.5475 27.1232C83.1124 27.5524 82.5594 27.8439 81.9581 27.961C81.3568 28.078 80.7342 28.0154 80.1686 27.7809C79.6031 27.5465 79.1199 27.1507 78.7801 26.6435C78.4402 26.1363 78.2588 25.5404 78.2588 24.9308C78.2599 24.5234 78.3418 24.1203 78.4998 23.7445C78.6578 23.3687 78.8888 23.0276 79.1796 22.7408C79.4703 22.4539 79.815 22.227 80.1941 22.0729C80.5731 21.9189 80.979 21.8408 81.3884 21.8431Z" fill="url(#paint9_radial_3_907)"/>
<g id="Vector_23" style="mix-blend-mode:screen">
<path d="M82.8996 9.91389C83.5044 10.6076 83.9579 11.4484 84.2027 12.3299C84.4474 13.2114 84.4723 14.094 84.2743 14.8659C84.0763 15.6377 83.6643 16.2642 83.0904 16.666C82.5164 17.0677 81.8064 17.2267 81.0503 17.1228C80.2941 17.0189 79.5258 16.6567 78.8425 16.0822C78.1592 15.5076 77.5918 14.7466 77.212 13.8953C76.8322 13.044 76.6572 12.1408 76.7091 11.3001C76.7609 10.4593 77.0373 9.71879 77.5033 9.17227C78.1284 8.44436 79.0462 8.11388 80.0569 8.25279C81.0676 8.39169 82.0893 8.98873 82.8996 9.91389Z" fill="url(#paint10_radial_3_907)" style="mix-blend-mode:lighten"/>
</g>
<path id="Vector_24" d="M81.3088 12.0842C80.74 11.6354 80.0718 11.5314 79.8164 11.8518C79.5611 12.1722 79.8152 12.7958 80.3841 13.2445C80.9529 13.6933 81.6211 13.7974 81.8764 13.477C82.1318 13.1566 81.8777 12.533 81.3088 12.0842Z" fill="#CAF8FF"/>
<g id="Vector_25" style="mix-blend-mode:screen">
<path d="M19.9753 14.8184C19.0641 14.9646 18.1068 14.9053 17.2248 14.648C16.3427 14.3906 15.5755 13.9469 15.0203 13.3729C14.4652 12.7989 14.1469 12.1205 14.106 11.4235C14.065 10.7265 14.3031 10.0423 14.7902 9.45747C15.2773 8.87268 15.9914 8.4136 16.8421 8.13835C17.6928 7.86309 18.642 7.78405 19.5693 7.91122C20.4967 8.03838 21.3605 8.36605 22.0515 8.85272C22.7426 9.3394 23.2297 9.9632 23.4512 10.6452C23.7438 11.5572 23.5428 12.5075 22.8918 13.2892C22.2407 14.0708 21.1925 14.6204 19.9753 14.8184Z" fill="url(#paint11_radial_3_907)" style="mix-blend-mode:lighten"/>
</g>
<path id="Vector_26" d="M18.9575 12.3302C19.8329 12.0166 20.4297 11.4504 20.2904 11.0657C20.1512 10.681 19.3286 10.6233 18.4532 10.937C17.5778 11.2506 16.9811 11.8168 17.1203 12.2015C17.2596 12.5862 18.0821 12.6439 18.9575 12.3302Z" fill="#CAF8FF"/>
<g id="Vector_27" style="mix-blend-mode:screen">
<path d="M81.1742 80.496C80.0514 80.8987 78.8533 81.0131 77.7314 80.8245C76.6096 80.636 75.6145 80.1531 74.8722 79.4369C74.1299 78.7207 73.6737 77.8034 73.5614 76.8012C73.4491 75.7991 73.6857 74.757 74.2413 73.807C74.7969 72.857 75.6465 72.0418 76.6826 71.4646C77.7186 70.8874 78.8945 70.5741 80.0613 70.5644C81.2282 70.5547 82.3335 70.8491 83.2374 71.4102C84.1414 71.9713 84.8032 72.774 85.1392 73.7166C85.5841 74.9779 85.417 76.3982 84.6744 77.6679C83.9318 78.9377 82.6737 79.9542 81.1742 80.496Z" fill="url(#paint12_radial_3_907)" style="mix-blend-mode:lighten"/>
</g>
<ellipse id="Ellipse" cx="2.71174" cy="0.895183" rx="2.71174" ry="0.895183" transform="matrix(0.852819 -0.522206 0.52607 0.850441 76.9141 76.6758)" fill="#BFF3FF"/>
<g id="Vector_28" style="mix-blend-mode:screen">
<path d="M15.1802 81.6316C14.1873 80.8562 13.3674 79.8888 12.8243 78.8517C12.2813 77.8146 12.0394 76.7546 12.1294 75.8057C12.2194 74.8569 12.6372 74.0619 13.3299 73.5214C14.0226 72.981 14.9591 72.7194 16.0207 72.7697C17.0824 72.82 18.2215 73.18 19.2939 73.8041C20.3662 74.4283 21.3236 75.2884 22.0448 76.2757C22.766 77.2631 23.2186 78.3331 23.3453 79.3504C23.472 80.3678 23.2671 81.2867 22.7565 81.9907C22.0703 82.9289 20.8891 83.4176 19.4701 83.3503C18.0511 83.283 16.5092 82.6653 15.1802 81.6316Z" fill="url(#paint13_radial_3_907)" style="mix-blend-mode:lighten"/>
</g>
<g id="Vector_29" style="mix-blend-mode:screen">
<path d="M11.9294 77.5823C11.4936 77.242 11.1337 76.8173 10.8954 76.3621C10.657 75.9069 10.5508 75.4416 10.5903 75.0252C10.6298 74.6087 10.8132 74.2597 11.1173 74.0225C11.4213 73.7853 11.8323 73.6705 12.2983 73.6926C12.7643 73.7147 13.2643 73.8727 13.735 74.1466C14.2057 74.4206 14.6259 74.7981 14.9425 75.2315C15.259 75.6648 15.4577 76.1345 15.5133 76.581C15.5689 77.0276 15.479 77.4309 15.2548 77.7399C14.9537 78.1517 14.4352 78.3662 13.8124 78.3367C13.1895 78.3071 12.5127 78.036 11.9294 77.5823Z" fill="url(#paint14_radial_3_907)" style="mix-blend-mode:lighten"/>
</g>
<ellipse id="Ellipse_2" cx="2.82661" cy="0.799472" rx="2.82661" ry="0.799472" transform="matrix(0.881154 0.47283 -0.365938 0.930639 15.4395 76.4099)" fill="#BFF3FF"/>
<ellipse id="Ellipse_3" cx="1.00559" cy="0.508752" rx="1.00559" ry="0.508752" transform="matrix(0.823918 0.566709 -0.57062 0.821214 12.7637 75.0972)" fill="#BFF3FF"/>
<g id="Vector_30" style="mix-blend-mode:screen">
<path d="M11.3982 12.2899C11.9856 11.5816 12.744 10.9974 13.5773 10.6113C14.4106 10.2253 15.2812 10.0547 16.0791 10.1212C16.877 10.1877 17.5662 10.4883 18.0594 10.9849C18.5527 11.4815 18.8278 12.1518 18.85 12.911C18.8721 13.6702 18.6403 14.484 18.184 15.2496C17.7276 16.0151 17.0671 16.6978 16.2862 17.2114C15.5053 17.725 14.639 18.0463 13.797 18.1346C12.955 18.2229 12.1753 18.0743 11.5564 17.7075C10.7314 17.2147 10.2519 16.3688 10.2222 15.3541C10.1926 14.3394 10.6153 13.238 11.3982 12.2899Z" fill="url(#paint15_radial_3_907)" style="mix-blend-mode:lighten"/>
</g>
<path id="Vector_31" d="M15.6191 14.1426C16.1716 13.6787 16.4501 13.1409 16.2413 12.9413C16.0324 12.7417 15.4152 12.9559 14.8627 13.4198C14.3102 13.8837 14.0316 14.4216 14.2405 14.6211C14.4494 14.8207 15.0666 14.6065 15.6191 14.1426Z" fill="#CAF8FF"/>
<g id="Vector_32" style="mix-blend-mode:screen">
<path d="M81.1742 80.496C80.0514 80.8987 78.8533 81.0131 77.7314 80.8245C76.6096 80.636 75.6145 80.1531 74.8722 79.4369C74.1299 78.7207 73.6737 77.8034 73.5614 76.8012C73.4491 75.7991 73.6857 74.757 74.2413 73.807C74.7969 72.857 75.6465 72.0418 76.6826 71.4646C77.7186 70.8874 78.8945 70.5741 80.0613 70.5644C81.2282 70.5547 82.3335 70.8491 83.2374 71.4102C84.1414 71.9713 84.8032 72.774 85.1392 73.7166C85.5841 74.9779 85.417 76.3982 84.6744 77.6679C83.9318 78.9377 82.6737 79.9542 81.1742 80.496Z" fill="url(#paint16_radial_3_907)" style="mix-blend-mode:lighten"/>
</g>
<ellipse id="Ellipse_4" cx="2.71174" cy="0.895183" rx="2.71174" ry="0.895183" transform="matrix(0.852819 -0.522206 0.52607 0.850441 76.9141 76.6758)" fill="#BFF3FF"/>
<g id="Vector_33" style="mix-blend-mode:screen">
<path d="M15.1802 81.6316C14.1873 80.8562 13.3674 79.8888 12.8243 78.8517C12.2813 77.8146 12.0394 76.7546 12.1294 75.8057C12.2194 74.8569 12.6372 74.0619 13.3299 73.5214C14.0226 72.981 14.9591 72.7194 16.0207 72.7697C17.0824 72.82 18.2215 73.18 19.2939 73.8041C20.3662 74.4283 21.3236 75.2884 22.0448 76.2757C22.766 77.2631 23.2186 78.3331 23.3453 79.3504C23.472 80.3678 23.2671 81.2867 22.7565 81.9907C22.0703 82.9289 20.8891 83.4176 19.4701 83.3503C18.0511 83.283 16.5092 82.6653 15.1802 81.6316Z" fill="url(#paint17_radial_3_907)" style="mix-blend-mode:lighten"/>
</g>
<g id="Vector_34" style="mix-blend-mode:screen">
<path d="M11.9294 77.5823C11.4936 77.242 11.1337 76.8173 10.8954 76.3621C10.657 75.9069 10.5508 75.4416 10.5903 75.0252C10.6298 74.6087 10.8132 74.2597 11.1173 74.0225C11.4213 73.7853 11.8323 73.6705 12.2983 73.6926C12.7643 73.7147 13.2643 73.8727 13.735 74.1466C14.2057 74.4206 14.6259 74.7981 14.9425 75.2315C15.259 75.6648 15.4577 76.1345 15.5133 76.581C15.5689 77.0276 15.479 77.4309 15.2548 77.7399C14.9537 78.1517 14.4352 78.3662 13.8124 78.3367C13.1895 78.3071 12.5127 78.036 11.9294 77.5823Z" fill="url(#paint18_radial_3_907)" style="mix-blend-mode:lighten"/>
</g>
<ellipse id="Ellipse_5" cx="2.82661" cy="0.799472" rx="2.82661" ry="0.799472" transform="matrix(0.881154 0.47283 -0.365938 0.930639 15.4395 76.4099)" fill="#BFF3FF"/>
<ellipse id="Ellipse_6" cx="1.00559" cy="0.508752" rx="1.00559" ry="0.508752" transform="matrix(0.823918 0.566709 -0.57062 0.821214 12.7637 75.0972)" fill="#BFF3FF"/>
<g id="Vector_35" style="mix-blend-mode:screen">
<path d="M13.1482 12.3459C13.5948 11.8074 14.1712 11.3634 14.8046 11.0699C15.4379 10.7765 16.0998 10.6468 16.7062 10.6974C17.3127 10.7479 17.8366 10.9764 18.2115 11.3539C18.5864 11.7314 18.7955 12.2409 18.8124 12.818C18.8292 13.395 18.6531 14.0136 18.3062 14.5955C17.9593 15.1774 17.4572 15.6964 16.8636 16.0867C16.27 16.4771 15.6116 16.7213 14.9716 16.7884C14.3316 16.8556 13.7389 16.7426 13.2685 16.4638C12.6414 16.0892 12.2769 15.4463 12.2544 14.675C12.2318 13.9037 12.5531 13.0665 13.1482 12.3459Z" fill="url(#paint19_radial_3_907)" style="mix-blend-mode:lighten"/>
</g>
<path id="Vector_36" d="M15.6191 14.1426C16.1716 13.6787 16.4501 13.1409 16.2413 12.9413C16.0324 12.7417 15.4152 12.9559 14.8627 13.4198C14.3102 13.8837 14.0316 14.4216 14.2405 14.6211C14.4494 14.8207 15.0666 14.6065 15.6191 14.1426Z" fill="#CAF8FF"/>
<path id="Vector_37" style="mix-blend-mode:screen" d="M49.5208 17.3522C66.4213 16.6811 79.4908 26.4531 78.7265 39.0924C77.9623 51.7318 63.5644 62.4837 46.6639 63.1549C29.7634 63.826 16.694 54.054 17.492 41.366C18.29 28.6781 32.6541 17.9747 49.5208 17.3522Z" fill="url(#paint20_radial_3_907)" fill-opacity="0.6"/>
</g>
</g>
<g id="Vector_38" filter="url(#filter0_f_3_907)">
<path d="M33.9691 10.001H62.4459C68.4276 10.001 74.1643 12.5911 78.3941 17.2017C82.6238 21.8122 85 28.0654 85 34.5857V48.1887C85 54.7693 82.6018 61.0804 78.3329 65.7336C74.064 70.3868 68.2742 73.001 62.2371 73.001H31.7809C26.0043 73.001 20.4642 70.4996 16.3795 66.0471C12.2948 61.5946 10 55.5558 10 49.259V36.1281C10 29.1987 12.5253 22.5532 17.0204 17.6534C21.5155 12.7536 27.6121 10.001 33.9691 10.001Z" fill="white" fill-opacity="0.2"/>
</g>
</g>
<g id="Frame">
<g id="Icon/Replay" filter="url(#filter1_d_3_907)">
<mask id="mask0_3_907" style="mask-type:alpha" maskUnits="userSpaceOnUse" x="31" y="20" width="34" height="41">
<g id="Mask">
<path id="Vector_39" d="M31 60.001H64.9394V20.001H31V60.001Z" fill="white"/>
</g>
</mask>
<g mask="url(#mask0_3_907)">
<path id="Fill" fill-rule="evenodd" clip-rule="evenodd" d="M58.8485 41.8906C58.2265 41.8906 57.7112 42.3938 57.6415 43.0523C57.1006 48.2207 52.9869 52.2395 47.9926 52.2395C42.6298 52.2395 38.2821 47.606 38.2821 41.8906C38.2821 37.1236 42.1535 34.0138 46.5515 33.1135C47.2987 32.9604 47.9926 33.5719 47.9926 34.3824V36.8228C47.9926 37.8674 49.0969 38.48 49.8996 37.8805L59.6131 30.6349C59.9374 30.392 60.1304 29.9982 60.1304 29.576C60.1304 29.1844 59.9631 28.8125 59.6757 28.5675L49.9622 20.2859C49.1678 19.6088 47.9926 20.2115 47.9926 21.2945V23.9427C47.9926 24.599 47.5317 25.1536 46.919 25.2258C38.4371 26.2277 31 32.7077 31 41.8906C31 51.8928 38.6074 60.0015 47.9926 60.0015C56.9384 60.0015 64.2697 52.6333 64.9359 43.2809C64.9892 42.5316 64.4319 41.8906 63.7268 41.8906H58.8485Z" fill="white"/>
</g>
</g>
</g>
</g>
<defs>
<filter id="filter0_f_3_907" x="0" y="0.000976562" width="95" height="83" filterUnits="userSpaceOnUse" color-interpolation-filters="sRGB">
<feFlood flood-opacity="0" result="BackgroundImageFix"/>
<feBlend mode="normal" in="SourceGraphic" in2="BackgroundImageFix" result="shape"/>
<feGaussianBlur stdDeviation="5" result="effect1_foregroundBlur_3_907"/>
</filter>
<filter id="filter1_d_3_907" x="31" y="20.001" width="33.9395" height="42" filterUnits="userSpaceOnUse" color-interpolation-filters="sRGB">
<feFlood flood-opacity="0" result="BackgroundImageFix"/>
<feColorMatrix in="SourceAlpha" type="matrix" values="0 0 0 0 0 0 0 0 0 0 0 0 0 0 0 0 0 0 127 0" result="hardAlpha"/>
<feOffset dy="2"/>
<feComposite in2="hardAlpha" operator="out"/>
<feColorMatrix type="matrix" values="0 0 0 0 0 0 0 0 0 0.596667 0 0 0 0 0.296276 0 0 0 1 0"/>
<feBlend mode="normal" in2="BackgroundImageFix" result="effect1_dropShadow_3_907"/>
<feBlend mode="normal" in="SourceGraphic" in2="effect1_dropShadow_3_907" result="shape"/>
</filter>
<radialGradient id="paint0_radial_3_907" cx="0" cy="0" r="1" gradientUnits="userSpaceOnUse" gradientTransform="translate(47.8061 39.3117) scale(49.7871 49.5347)">
<stop stop-color="#1FFF7E" stop-opacity="0.4"/>
<stop offset="0.21" stop-color="#17B861" stop-opacity="0.57"/>
<stop offset="0.56" stop-color="#0C5439" stop-opacity="0.8"/>
<stop offset="0.83" stop-color="#051720" stop-opacity="0.95"/>
<stop offset="1" stop-color="#020017"/>
</radialGradient>
<radialGradient id="paint1_radial_3_907" cx="0" cy="0" r="1" gradientUnits="userSpaceOnUse" gradientTransform="translate(47.744 58.0619) rotate(-86.8028) scale(60.2425 60.5476)">
<stop stop-color="#0DDD6D" stop-opacity="0.47"/>
<stop offset="0.697228" stop-color="#03140B" stop-opacity="0.96"/>
</radialGradient>
<radialGradient id="paint2_radial_3_907" cx="0" cy="0" r="1" gradientUnits="userSpaceOnUse" gradientTransform="translate(96.8794 12.9658) rotate(148.644) scale(43.3606 48.4514)">
<stop stop-color="#1FFF7E" stop-opacity="0.3"/>
<stop stop-color="#1FFF7E" stop-opacity="0.43"/>
<stop offset="0.69" stop-color="#0B4F37" stop-opacity="0.78"/>
<stop offset="0.94" stop-color="#020017"/>
</radialGradient>
<radialGradient id="paint3_radial_3_907" cx="0" cy="0" r="1" gradientUnits="userSpaceOnUse" gradientTransform="translate(25.9809 22.0116) rotate(40.0965) scale(18.9685 22.3637)">
<stop stop-color="#1FFF7E" stop-opacity="0.3"/>
<stop offset="0.09" stop-color="#1CE574" stop-opacity="0.37"/>
<stop offset="0.7" stop-color="#094031" stop-opacity="0.82"/>
<stop offset="1" stop-color="#020017"/>
</radialGradient>
<radialGradient id="paint4_radial_3_907" cx="0" cy="0" r="1" gradientUnits="userSpaceOnUse" gradientTransform="translate(21.6424 61.8223) rotate(-53.93) scale(4.5758 4.58299)">
<stop stop-color="#00B359"/>
<stop offset="0.13" stop-color="#009148"/>
<stop offset="0.34" stop-color="#005E2F"/>
<stop offset="0.54" stop-color="#00351A"/>
<stop offset="0.73" stop-color="#00180C"/>
<stop offset="0.89" stop-color="#000603"/>
<stop offset="1"/>
</radialGradient>
<radialGradient id="paint5_radial_3_907" cx="0" cy="0" r="1" gradientUnits="userSpaceOnUse" gradientTransform="translate(77.0944 21.4572) rotate(-31.8747) scale(3.65453 5.0347)">
<stop stop-color="#00B359"/>
<stop offset="0.13" stop-color="#009148"/>
<stop offset="0.34" stop-color="#005E2F"/>
<stop offset="0.54" stop-color="#00351A"/>
<stop offset="0.73" stop-color="#00180C"/>
<stop offset="0.89" stop-color="#000603"/>
<stop offset="1"/>
</radialGradient>
<radialGradient id="paint6_radial_3_907" cx="0" cy="0" r="1" gradientUnits="userSpaceOnUse" gradientTransform="translate(73.6037 61.9834) rotate(50.5678) scale(5.49681 9.59371)">
<stop stop-color="#CEE900"/>
<stop offset="0.04" stop-color="#AEC500"/>
<stop offset="0.1" stop-color="#869700"/>
<stop offset="0.17" stop-color="#626F00"/>
<stop offset="0.24" stop-color="#444C00"/>
<stop offset="0.31" stop-color="#2B3000"/>
<stop offset="0.39" stop-color="#181B00"/>
<stop offset="0.47" stop-color="#0A0C00"/>
<stop offset="0.57" stop-color="#020300"/>
<stop offset="0.72"/>
</radialGradient>
<radialGradient id="paint7_radial_3_907" cx="0" cy="0" r="1" gradientUnits="userSpaceOnUse" gradientTransform="translate(30.1553 14.5098) rotate(-73.9775) scale(2.81095 2.82309)">
<stop stop-color="#00B359"/>
<stop offset="0.13" stop-color="#009148"/>
<stop offset="0.34" stop-color="#005E2F"/>
<stop offset="0.54" stop-color="#00351A"/>
<stop offset="0.73" stop-color="#00180C"/>
<stop offset="0.89" stop-color="#000603"/>
<stop offset="1"/>
</radialGradient>
<radialGradient id="paint8_radial_3_907" cx="0" cy="0" r="1" gradientUnits="userSpaceOnUse" gradientTransform="translate(24.7245 15.2816) rotate(-143.27) scale(3.87224 3.86669)">
<stop stop-color="#00B359"/>
<stop offset="0.13" stop-color="#009148"/>
<stop offset="0.34" stop-color="#005E2F"/>
<stop offset="0.54" stop-color="#00351A"/>
<stop offset="0.73" stop-color="#00180C"/>
<stop offset="0.89" stop-color="#000603"/>
<stop offset="1"/>
</radialGradient>
<radialGradient id="paint9_radial_3_907" cx="0" cy="0" r="1" gradientUnits="userSpaceOnUse" gradientTransform="translate(81.3622 24.5448) rotate(-71.4775) scale(2.4423 2.45222)">
<stop stop-color="#00B359"/>
<stop offset="0.13" stop-color="#009148"/>
<stop offset="0.34" stop-color="#005E2F"/>
<stop offset="0.54" stop-color="#00351A"/>
<stop offset="0.73" stop-color="#00180C"/>
<stop offset="0.89" stop-color="#000603"/>
<stop offset="1"/>
</radialGradient>
<radialGradient id="paint10_radial_3_907" cx="0" cy="0" r="1" gradientUnits="userSpaceOnUse" gradientTransform="translate(80.5533 12.6852) rotate(129.842) scale(3.63511 4.59266)">
<stop stop-color="#00C2FF" stop-opacity="0.87"/>
<stop offset="1" stop-opacity="0"/>
</radialGradient>
<radialGradient id="paint11_radial_3_907" cx="0" cy="0" r="1" gradientUnits="userSpaceOnUse" gradientTransform="translate(18.6123 12.001) rotate(-102.842) scale(4.17067 5.28684)">
<stop offset="0.1875" stop-color="#00C2FF" stop-opacity="0.87"/>
<stop offset="1" stop-opacity="0"/>
</radialGradient>
<radialGradient id="paint12_radial_3_907" cx="0" cy="0" r="1" gradientUnits="userSpaceOnUse" gradientTransform="translate(79.4608 75.7385) rotate(-110.193) scale(5.05659 6.02749)">
<stop stop-color="#03C3FF" stop-opacity="0.58"/>
<stop offset="1" stop-opacity="0"/>
</radialGradient>
<radialGradient id="paint13_radial_3_907" cx="0" cy="0" r="1" gradientUnits="userSpaceOnUse" gradientTransform="translate(17.7464 78.063) rotate(-54.748) scale(4.39693 6.35853)">
<stop stop-color="#03C3FF" stop-opacity="0.58"/>
<stop offset="1" stop-opacity="0"/>
</radialGradient>
<radialGradient id="paint14_radial_3_907" cx="0" cy="0" r="1" gradientUnits="userSpaceOnUse" gradientTransform="translate(13.0558 76.0159) rotate(-54.748) scale(1.92993 2.79093)">
<stop stop-color="#03C3FF" stop-opacity="0.58"/>
<stop offset="1" stop-opacity="0"/>
</radialGradient>
<radialGradient id="paint15_radial_3_907" cx="0" cy="0" r="1" gradientUnits="userSpaceOnUse" gradientTransform="translate(14.5336 14.1333) rotate(30.0433) scale(3.64138 4.58476)">
<stop stop-color="#00C2FF" stop-opacity="0.87"/>
<stop offset="1" stop-opacity="0"/>
</radialGradient>
<radialGradient id="paint16_radial_3_907" cx="0" cy="0" r="1" gradientUnits="userSpaceOnUse" gradientTransform="translate(79.4608 75.7385) rotate(-110.193) scale(5.05659 6.02749)">
<stop stop-color="#03C3FF" stop-opacity="0.58"/>
<stop offset="1" stop-opacity="0"/>
</radialGradient>
<radialGradient id="paint17_radial_3_907" cx="0" cy="0" r="1" gradientUnits="userSpaceOnUse" gradientTransform="translate(17.7464 78.063) rotate(-54.748) scale(4.39693 6.35853)">
<stop stop-color="#03C3FF" stop-opacity="0.58"/>
<stop offset="1" stop-opacity="0"/>
</radialGradient>
<radialGradient id="paint18_radial_3_907" cx="0" cy="0" r="1" gradientUnits="userSpaceOnUse" gradientTransform="translate(13.0558 76.0159) rotate(-54.748) scale(1.92993 2.79093)">
<stop stop-color="#03C3FF" stop-opacity="0.58"/>
<stop offset="1" stop-opacity="0"/>
</radialGradient>
<radialGradient id="paint19_radial_3_907" cx="0" cy="0" r="1" gradientUnits="userSpaceOnUse" gradientTransform="translate(15.5315 13.747) rotate(30.0433) scale(2.76785 3.48492)">
<stop stop-color="#00C2FF" stop-opacity="0.87"/>
<stop offset="1" stop-opacity="0"/>
</radialGradient>
<radialGradient id="paint20_radial_3_907" cx="0" cy="0" r="1" gradientUnits="userSpaceOnUse" gradientTransform="translate(46.1112 38.4495) rotate(-76.0157) scale(21.1159 27.5272)">
<stop stop-color="#009148"/>
<stop offset="1" stop-opacity="0"/>
</radialGradient>
</defs>
</svg>
