<svg width="95" height="89" viewBox="0 0 95 89" fill="none" xmlns="http://www.w3.org/2000/svg">
<g id="Button/Square/Fill/Hover">
<g id="GroupSmallButton">
<g id="Group">
<path id="Union" fill-rule="evenodd" clip-rule="evenodd" d="M66.3747 1H32.0295C24.3304 1 16.9466 4.02459 11.5025 9.40839C6.05846 14.7922 3 22.0942 3 29.708V55.228C3 56.4477 3.08648 57.6585 3.2561 58.8526V62.8161C3.2561 69.7604 6.0288 76.4204 10.9642 81.3308C15.8997 86.2412 22.5936 88.9999 29.5733 88.9999H62.7414C66.6461 89.0019 70.5128 88.2385 74.1208 86.7532C77.7288 85.268 81.0073 83.09 83.769 80.3437C86.5307 77.5975 88.7215 74.3367 90.2162 70.7478C91.7109 67.1589 92.4802 63.3121 92.4802 59.4273V57.569C92.8237 55.7844 93 53.9598 93 52.1171V27.3305C93 20.3472 90.1948 13.6499 85.2016 8.71202C80.2084 3.7741 73.4361 1 66.3747 1Z" fill="#444444"/>
<path id="Vector" d="M34.9952 7.17542H64.7116C72.2142 7.17542 79.4094 10.1236 84.7145 15.3713C90.0196 20.619 93 27.7364 93 35.1578V59.4273C93 63.3121 92.2262 67.1589 90.7228 70.7478C89.2194 74.3367 87.0159 77.5974 84.2382 80.3437C81.4604 83.09 78.1629 85.268 74.5339 86.7532C70.905 88.2385 67.0158 89.0019 63.0885 88.9999H29.7277C22.7074 88.9999 15.9746 86.2412 11.0105 81.3308C6.04639 76.4204 3 69.6987 3 62.7543V38.4385C3 30.1122 6.60136 22.2582 12.5533 16.3706C18.5053 10.483 26.5778 7.17542 34.9952 7.17542Z" fill="#3EA6B7"/>
<g id="Vector_2" style="mix-blend-mode:screen">
<path d="M32.0295 1H66.3747C73.4361 1 80.2084 3.7741 85.2016 8.71202C90.1948 13.6499 93 20.3472 93 27.3305V52.1171C93 59.8464 89.8973 67.2596 84.3736 72.7279C78.8499 78.1962 71.357 81.2724 63.5412 81.2806H29.3443C22.3574 81.2806 15.6566 78.5358 10.7161 73.65C5.77555 68.7642 3 62.1376 3 55.228V29.708C3 22.0942 6.05846 14.7922 11.5025 9.40839C16.9466 4.02459 24.3304 1 32.0295 1Z" fill="#9FDEF4"/>
</g>
<g id="Vector_3" style="mix-blend-mode:multiply">
<path d="M72.827 57.3511L21.6201 58.123C21.6201 58.123 9.20628 60.4388 4.59766 71.0605C6.3376 76.2827 9.68711 80.8267 14.1704 84.0471C18.6538 87.2675 24.043 89.0005 29.5727 89.0001H62.7408C69.2143 88.9974 75.8991 86.9289 81.0607 83.0418C86.2223 79.1547 89.8616 74.1148 91.6219 67.9168C85.353 57.2024 72.827 57.3511 72.827 57.3511Z" fill="#CED6FF"/>
</g>
<path id="Vector_4" d="M34.2285 14.3158H62.8035C68.8058 14.3158 74.5624 16.6881 78.8067 20.9109C83.051 25.1337 85.4354 30.861 85.4354 36.833V50.192C85.2414 56.1929 83.3181 62.3521 79.0345 66.614C74.7509 70.8758 68.5604 72.7894 62.594 72.7894H32.0328C26.2362 72.7894 20.677 70.4984 16.5782 66.4204C12.4794 62.3424 10.1768 57.0489 10.1768 51.0442V38.2456C10.1768 31.899 12.7108 25.8124 17.2213 21.3247C21.7319 16.837 27.8496 14.3158 34.2285 14.3158Z" fill="#037219"/>
<g id="Vector_5" style="mix-blend-mode:multiply">
<path d="M66.0156 1H31.8777C26.0673 0.996641 20.3911 2.73819 15.5918 5.99682C10.7924 9.25545 7.09338 13.8794 4.97852 19.2638C19.173 20.9291 33.4513 21.7899 47.744 21.8421C60.4139 21.8421 76.4114 21.6414 90.245 15.6667C88.1204 11.1139 84.8553 7.82483 80.6021 5.125C76.3489 2.42517 71.0607 0.998379 66.0156 1Z" fill="#D7E1FF"/>
</g>
<path id="Vector_6" d="M34.2285 10.4562H62.8035C68.8058 10.4562 74.5624 12.8285 78.8067 17.0513C83.051 21.2741 85.4354 27.0014 85.4354 32.9733V45.4323C85.4354 51.4595 83.0289 57.2398 78.7453 61.5017C74.4617 65.7636 68.6519 68.1579 62.594 68.1579H32.0328C26.2362 68.1579 20.677 65.8668 16.5782 61.7888C12.4794 57.7108 10.1768 52.1798 10.1768 46.4126V34.386C10.1768 28.0394 12.7108 21.9528 17.2213 17.4651C21.7319 12.9773 27.8496 10.4562 34.2285 10.4562Z" fill="#1DA052"/>
<path id="Vector_7" style="mix-blend-mode:screen" d="M34.2285 10.4562H62.8035C68.8058 10.4562 74.5624 12.8285 78.8067 17.0513C83.051 21.2741 85.4354 27.0014 85.4354 32.9733V45.4323C85.4354 51.4595 85.4354 57.3509 80.1983 61.7888C75.9147 66.0507 68.6519 68.1579 62.594 68.1579H32.0328C26.2362 68.1579 19.9006 66.4464 15.8018 62.3684C10.1768 57.3509 10.1768 52.1798 10.1768 46.4126V34.386C10.1768 28.0394 12.7108 21.9528 17.2213 17.4651C21.7319 12.9773 27.8496 10.4562 34.2285 10.4562Z" fill="url(#paint0_radial_3_962)"/>
<path id="Vector_8" style="mix-blend-mode:screen" opacity="0.68" d="M32.0327 71.2456H62.5939C76.7072 71.2455 86.7934 61.2104 85.6296 46.1578C68.4757 47.0301 64.6813 55.421 46.4486 55.421C29.7675 55.421 24.7244 46.0575 10.1766 44.8688C7.65556 65.842 24.724 71.2456 32.0327 71.2456Z" fill="url(#paint1_radial_3_962)"/>
<path id="Vector_9" style="mix-blend-mode:screen" opacity="0.73" d="M64.1924 10.5024C64.2932 26.4736 70.8881 39.5964 85.4355 37.6666V32.9733C85.4345 27.2412 83.2363 21.7253 79.2891 17.55C75.3419 13.3746 69.9428 10.8542 64.1924 10.5024Z" fill="url(#paint2_radial_3_962)"/>
<path id="Vector_10" style="mix-blend-mode:screen" opacity="0.73" d="M10.208 33.2976C31.327 35.4667 41.7934 21.8421 41.7934 10.4562H34.2287C28.0402 10.4577 22.0905 12.8325 17.6168 17.0866C13.143 21.3407 10.4895 27.1468 10.208 33.2976Z" fill="url(#paint3_radial_3_962)"/>
<path id="Vector_11" d="M22.8843 62.2581C23.2174 61.7112 22.8932 60.9096 22.1602 60.4678C21.4272 60.026 20.5631 60.1112 20.23 60.6581C19.8969 61.2051 20.2211 62.0066 20.9541 62.4484C21.6871 62.8903 22.5512 62.805 22.8843 62.2581Z" fill="#FFF39C"/>
<path id="Vector_12" style="mix-blend-mode:screen" d="M23.8166 57.7135C24.6404 58.1463 25.3167 58.8124 25.7599 59.6276C26.2032 60.4428 26.3935 61.3705 26.3067 62.2934C26.22 63.2162 25.8601 64.0927 25.2726 64.812C24.685 65.5313 23.8963 66.0611 23.0062 66.3343C22.116 66.6076 21.1643 66.6121 20.2716 66.3471C19.3789 66.0822 18.5852 65.5598 17.9909 64.8461C17.3967 64.1323 17.0285 63.2592 16.933 62.3372C16.8375 61.4153 17.019 60.4858 17.4545 59.6665C18.0382 58.5684 19.0362 57.7459 20.2292 57.3797C21.4222 57.0134 22.7126 57.1335 23.8166 57.7135Z" fill="url(#paint4_radial_3_962)"/>
<path id="Vector_13" d="M77.8923 22.0223C78.4451 21.6962 78.5779 20.9026 78.1889 20.2499C77.7998 19.5972 77.0363 19.3325 76.4834 19.6587C75.9306 19.9848 75.7978 20.7784 76.1869 21.4311C76.5759 22.0838 77.3395 22.3485 77.8923 22.0223Z" fill="#FFF39C"/>
<path id="Vector_14" style="mix-blend-mode:screen" d="M79.6782 19.6344C81.0748 21.7032 80.9972 24.1888 79.4998 25.1923C78.0024 26.1958 75.6593 25.339 74.2549 23.2779C72.8506 21.2169 72.936 18.7236 74.4256 17.72C75.9153 16.7165 78.2584 17.5734 79.6782 19.6344Z" fill="url(#paint5_radial_3_962)"/>
<path id="Vector_15" style="mix-blend-mode:screen" d="M75.2333 64.298C72.9057 65.8419 70.2678 66.0426 69.3678 64.7148C68.4678 63.3871 69.6393 61.0405 71.9746 59.4734C74.31 57.9064 76.9402 57.7212 77.8402 59.0566C78.7402 60.392 77.5686 62.7001 75.2333 64.298Z" fill="url(#paint6_radial_3_962)"/>
<path id="Vector_16" d="M74.223 62.874C75.1872 62.215 75.6875 61.2733 75.3405 60.7709C74.9936 60.2684 73.9307 60.3953 72.9665 61.0544C72.0023 61.7134 71.502 62.655 71.849 63.1575C72.1959 63.66 73.2588 63.5331 74.223 62.874Z" fill="#DAFFCC"/>
<path id="Vector_17" d="M31.0559 14.5106C31.0815 14.1363 30.6967 13.8054 30.1965 13.7716C29.6964 13.7378 29.2701 14.0138 29.2446 14.3881C29.219 14.7624 29.6037 15.0932 30.1039 15.1271C30.6041 15.1609 31.0303 14.8849 31.0559 14.5106Z" fill="#FFF39C"/>
<path id="Vector_18" style="mix-blend-mode:screen" d="M30.3108 11.892C30.8571 11.8966 31.3897 12.0623 31.8413 12.368C32.293 12.6738 32.6433 13.106 32.8481 13.6098C33.0529 14.1137 33.1029 14.6667 32.9918 15.1988C32.8807 15.731 32.6135 16.2184 32.224 16.5995C31.8345 16.9805 31.3401 17.2381 30.8035 17.3397C30.2668 17.4412 29.712 17.3821 29.209 17.1699C28.7061 16.9577 28.2777 16.6019 27.9781 16.1475C27.6784 15.6931 27.5209 15.1604 27.5255 14.6169C27.5275 14.2557 27.6013 13.8985 27.7425 13.5658C27.8838 13.2331 28.0898 12.9315 28.3486 12.6782C28.6075 12.425 28.9141 12.2252 29.2509 12.0902C29.5876 11.9553 29.9478 11.8879 30.3108 11.892Z" fill="url(#paint7_radial_3_962)"/>
<path id="Vector_19" d="M25.5707 15.7558C26.0229 15.166 26.0278 14.4133 25.5815 14.0745C25.1352 13.7358 24.4068 13.9393 23.9546 14.529C23.5023 15.1188 23.4975 15.8715 23.9438 16.2103C24.3901 16.549 25.1185 16.3455 25.5707 15.7558Z" fill="#FFF39C"/>
<path id="Vector_20" style="mix-blend-mode:screen" d="M21.7062 12.8412C22.1589 12.1707 22.8012 11.6488 23.552 11.3416C24.3028 11.0344 25.1283 10.9556 25.9241 11.1152C26.7199 11.2748 27.4503 11.6656 28.0229 12.2382C28.5954 12.8108 28.9844 13.5394 29.1407 14.332C29.297 15.1246 29.2135 15.9455 28.9009 16.6909C28.5882 17.4363 28.0604 18.0727 27.3842 18.5196C26.7079 18.9665 25.9137 19.2039 25.1019 19.2017C24.2901 19.1994 23.4972 18.9577 22.8234 18.5071C22.3754 18.2087 21.991 17.8252 21.6922 17.3787C21.3935 16.9321 21.1863 16.4313 21.0825 15.9049C20.9787 15.3785 20.9804 14.8369 21.0874 14.3112C21.1944 13.7854 21.4047 13.2859 21.7062 12.8412Z" fill="url(#paint8_radial_3_962)"/>
<path id="Vector_21" d="M81.7434 24.8043C81.769 24.43 81.3842 24.0991 80.884 24.0653C80.3839 24.0315 79.9576 24.3075 79.9321 24.6818C79.9065 25.0561 80.2912 25.3869 80.7914 25.4208C81.2916 25.4546 81.7178 25.1786 81.7434 24.8043Z" fill="#FFF39C"/>
<path id="Vector_22" style="mix-blend-mode:screen" d="M81.3884 21.8421C82.0011 21.8472 82.5985 22.0327 83.1054 22.3751C83.6123 22.7175 84.006 23.2015 84.2369 23.7661C84.4678 24.3308 84.5255 24.9508 84.4028 25.548C84.2801 26.1453 83.9825 26.693 83.5475 27.1222C83.1124 27.5515 82.5594 27.843 81.9581 27.96C81.3568 28.0771 80.7342 28.0144 80.1686 27.78C79.6031 27.5455 79.1199 27.1498 78.7801 26.6426C78.4402 26.1354 78.2588 25.5394 78.2588 24.9298C78.2599 24.5225 78.3418 24.1193 78.4998 23.7435C78.6578 23.3677 78.8888 23.0266 79.1796 22.7398C79.4703 22.453 79.815 22.226 80.1941 22.072C80.5731 21.9179 80.979 21.8398 81.3884 21.8421Z" fill="url(#paint9_radial_3_962)"/>
<g id="Vector_23" style="mix-blend-mode:screen">
<path d="M82.8996 9.91279C83.5044 10.6065 83.9579 11.4473 84.2027 12.3288C84.4474 13.2103 84.4723 14.0929 84.2743 14.8648C84.0763 15.6366 83.6643 16.2631 83.0904 16.6649C82.5164 17.0666 81.8064 17.2256 81.0503 17.1217C80.2941 17.0178 79.5258 16.6556 78.8425 16.0811C78.1592 15.5065 77.5918 14.7455 77.212 13.8942C76.8322 13.0429 76.6572 12.1397 76.7091 11.299C76.7609 10.4582 77.0373 9.7177 77.5033 9.17117C78.1284 8.44327 79.0462 8.11278 80.0569 8.25169C81.0676 8.39059 82.0893 8.98763 82.8996 9.91279Z" fill="url(#paint10_radial_3_962)" style="mix-blend-mode:lighten"/>
</g>
<path id="Vector_24" d="M81.3088 12.0831C80.74 11.6343 80.0718 11.5303 79.8164 11.8507C79.5611 12.1711 79.8152 12.7947 80.3841 13.2434C80.9529 13.6922 81.6211 13.7963 81.8764 13.4759C82.1318 13.1555 81.8777 12.5319 81.3088 12.0831Z" fill="#CAF8FF"/>
<g id="Vector_25" style="mix-blend-mode:screen">
<path d="M19.9753 14.8174C19.0641 14.9636 18.1068 14.9043 17.2248 14.647C16.3427 14.3897 15.5755 13.9459 15.0203 13.3719C14.4652 12.7979 14.1469 12.1195 14.106 11.4225C14.065 10.7255 14.3031 10.0413 14.7902 9.45649C15.2773 8.8717 15.9914 8.41262 16.8421 8.13737C17.6928 7.86212 18.642 7.78307 19.5693 7.91024C20.4967 8.03741 21.3605 8.36507 22.0515 8.85175C22.7426 9.33842 23.2297 9.96223 23.4512 10.6442C23.7438 11.5562 23.5428 12.5066 22.8918 13.2882C22.2407 14.0698 21.1925 14.6195 19.9753 14.8174Z" fill="url(#paint11_radial_3_962)" style="mix-blend-mode:lighten"/>
</g>
<path id="Vector_26" d="M18.9575 12.3293C19.8329 12.0156 20.4297 11.4495 20.2904 11.0647C20.1512 10.68 19.3286 10.6223 18.4532 10.936C17.5778 11.2496 16.9811 11.8158 17.1203 12.2005C17.2596 12.5853 18.0821 12.6429 18.9575 12.3293Z" fill="#CAF8FF"/>
<g id="Vector_27" style="mix-blend-mode:screen">
<path d="M81.1742 80.4949C80.0514 80.8976 78.8533 81.012 77.7314 80.8234C76.6096 80.6349 75.6145 80.152 74.8722 79.4358C74.1299 78.7196 73.6737 77.8023 73.5614 76.8001C73.4491 75.798 73.6857 74.7559 74.2413 73.8059C74.7969 72.8559 75.6465 72.0407 76.6826 71.4635C77.7186 70.8863 78.8945 70.573 80.0613 70.5633C81.2282 70.5536 82.3335 70.848 83.2374 71.4091C84.1414 71.9702 84.8032 72.7729 85.1392 73.7155C85.5841 74.9768 85.417 76.3971 84.6744 77.6668C83.9318 78.9366 82.6737 79.9531 81.1742 80.4949Z" fill="url(#paint12_radial_3_962)" style="mix-blend-mode:lighten"/>
</g>
<ellipse id="Ellipse" cx="2.71174" cy="0.895183" rx="2.71174" ry="0.895183" transform="matrix(0.852819 -0.522206 0.52607 0.850441 76.9141 76.6747)" fill="#BFF3FF"/>
<g id="Vector_28" style="mix-blend-mode:screen">
<path d="M15.1802 81.6306C14.1873 80.8553 13.3674 79.8878 12.8243 78.8507C12.2813 77.8137 12.0394 76.7536 12.1294 75.8047C12.2194 74.8559 12.6372 74.0609 13.3299 73.5205C14.0226 72.98 14.9591 72.7184 16.0207 72.7687C17.0824 72.819 18.2215 73.179 19.2939 73.8032C20.3662 74.4273 21.3236 75.2875 22.0448 76.2748C22.766 77.2621 23.2186 78.3321 23.3453 79.3495C23.472 80.3668 23.2671 81.2857 22.7565 81.9898C22.0703 82.9279 20.8891 83.4166 19.4701 83.3493C18.0511 83.282 16.5092 82.6643 15.1802 81.6306Z" fill="url(#paint13_radial_3_962)" style="mix-blend-mode:lighten"/>
</g>
<g id="Vector_29" style="mix-blend-mode:screen">
<path d="M11.9294 77.5813C11.4936 77.241 11.1337 76.8164 10.8954 76.3612C10.657 75.906 10.5508 75.4407 10.5903 75.0242C10.6298 74.6077 10.8132 74.2588 11.1173 74.0215C11.4213 73.7843 11.8323 73.6695 12.2983 73.6916C12.7643 73.7137 13.2643 73.8717 13.735 74.1456C14.2057 74.4196 14.6259 74.7971 14.9425 75.2305C15.259 75.6638 15.4577 76.1335 15.5133 76.5801C15.5689 77.0266 15.479 77.4299 15.2548 77.7389C14.9537 78.1507 14.4352 78.3652 13.8124 78.3357C13.1895 78.3062 12.5127 78.035 11.9294 77.5813Z" fill="url(#paint14_radial_3_962)" style="mix-blend-mode:lighten"/>
</g>
<ellipse id="Ellipse_2" cx="2.82661" cy="0.799472" rx="2.82661" ry="0.799472" transform="matrix(0.881154 0.47283 -0.365938 0.930639 15.4395 76.4089)" fill="#BFF3FF"/>
<ellipse id="Ellipse_3" cx="1.00559" cy="0.508752" rx="1.00559" ry="0.508752" transform="matrix(0.823918 0.566709 -0.57062 0.821214 12.7637 75.0962)" fill="#BFF3FF"/>
<g id="Vector_30" style="mix-blend-mode:screen">
<path d="M11.3982 12.2888C11.9856 11.5805 12.744 10.9963 13.5773 10.6102C14.4106 10.2242 15.2812 10.0536 16.0791 10.1201C16.877 10.1866 17.5662 10.4872 18.0594 10.9838C18.5527 11.4804 18.8278 12.1508 18.85 12.9099C18.8721 13.6691 18.6403 14.4829 18.184 15.2485C17.7276 16.014 17.0671 16.6967 16.2862 17.2103C15.5053 17.7239 14.639 18.0452 13.797 18.1335C12.955 18.2218 12.1753 18.0732 11.5564 17.7064C10.7314 17.2136 10.2519 16.3677 10.2222 15.353C10.1926 14.3383 10.6153 13.2369 11.3982 12.2888Z" fill="url(#paint15_radial_3_962)" style="mix-blend-mode:lighten"/>
</g>
<path id="Vector_31" d="M15.6191 14.1417C16.1716 13.6779 16.4501 13.14 16.2413 12.9404C16.0324 12.7408 15.4152 12.9551 14.8627 13.419C14.3102 13.8829 14.0316 14.4207 14.2405 14.6203C14.4494 14.8199 15.0666 14.6056 15.6191 14.1417Z" fill="#CAF8FF"/>
<g id="Vector_32" style="mix-blend-mode:screen">
<path d="M81.1742 80.4949C80.0514 80.8976 78.8533 81.012 77.7314 80.8234C76.6096 80.6349 75.6145 80.152 74.8722 79.4358C74.1299 78.7196 73.6737 77.8023 73.5614 76.8001C73.4491 75.798 73.6857 74.7559 74.2413 73.8059C74.7969 72.8559 75.6465 72.0407 76.6826 71.4635C77.7186 70.8863 78.8945 70.573 80.0613 70.5633C81.2282 70.5536 82.3335 70.848 83.2374 71.4091C84.1414 71.9702 84.8032 72.7729 85.1392 73.7155C85.5841 74.9768 85.417 76.3971 84.6744 77.6668C83.9318 78.9366 82.6737 79.9531 81.1742 80.4949Z" fill="url(#paint16_radial_3_962)" style="mix-blend-mode:lighten"/>
</g>
<ellipse id="Ellipse_4" cx="2.71174" cy="0.895183" rx="2.71174" ry="0.895183" transform="matrix(0.852819 -0.522206 0.52607 0.850441 76.9141 76.6747)" fill="#BFF3FF"/>
<g id="Vector_33" style="mix-blend-mode:screen">
<path d="M15.1802 81.6306C14.1873 80.8553 13.3674 79.8878 12.8243 78.8507C12.2813 77.8137 12.0394 76.7536 12.1294 75.8047C12.2194 74.8559 12.6372 74.0609 13.3299 73.5205C14.0226 72.98 14.9591 72.7184 16.0207 72.7687C17.0824 72.819 18.2215 73.179 19.2939 73.8032C20.3662 74.4273 21.3236 75.2875 22.0448 76.2748C22.766 77.2621 23.2186 78.3321 23.3453 79.3495C23.472 80.3668 23.2671 81.2857 22.7565 81.9898C22.0703 82.9279 20.8891 83.4166 19.4701 83.3493C18.0511 83.282 16.5092 82.6643 15.1802 81.6306Z" fill="url(#paint17_radial_3_962)" style="mix-blend-mode:lighten"/>
</g>
<g id="Vector_34" style="mix-blend-mode:screen">
<path d="M11.9294 77.5813C11.4936 77.241 11.1337 76.8164 10.8954 76.3612C10.657 75.906 10.5508 75.4407 10.5903 75.0242C10.6298 74.6077 10.8132 74.2588 11.1173 74.0215C11.4213 73.7843 11.8323 73.6695 12.2983 73.6916C12.7643 73.7137 13.2643 73.8717 13.735 74.1456C14.2057 74.4196 14.6259 74.7971 14.9425 75.2305C15.259 75.6638 15.4577 76.1335 15.5133 76.5801C15.5689 77.0266 15.479 77.4299 15.2548 77.7389C14.9537 78.1507 14.4352 78.3652 13.8124 78.3357C13.1895 78.3062 12.5127 78.035 11.9294 77.5813Z" fill="url(#paint18_radial_3_962)" style="mix-blend-mode:lighten"/>
</g>
<ellipse id="Ellipse_5" cx="2.82661" cy="0.799472" rx="2.82661" ry="0.799472" transform="matrix(0.881154 0.47283 -0.365938 0.930639 15.4395 76.4089)" fill="#BFF3FF"/>
<ellipse id="Ellipse_6" cx="1.00559" cy="0.508752" rx="1.00559" ry="0.508752" transform="matrix(0.823918 0.566709 -0.57062 0.821214 12.7637 75.0962)" fill="#BFF3FF"/>
<g id="Vector_35" style="mix-blend-mode:screen">
<path d="M13.1482 12.3449C13.5948 11.8065 14.1712 11.3624 14.8046 11.069C15.4379 10.7755 16.0998 10.6459 16.7062 10.6964C17.3127 10.747 17.8366 10.9754 18.2115 11.3529C18.5864 11.7304 18.7955 12.2399 18.8124 12.817C18.8292 13.394 18.6531 14.0126 18.3062 14.5945C17.9593 15.1764 17.4572 15.6954 16.8636 16.0858C16.27 16.4761 15.6116 16.7203 14.9716 16.7875C14.3316 16.8546 13.7389 16.7416 13.2685 16.4628C12.6414 16.0882 12.2769 15.4453 12.2544 14.674C12.2318 13.9027 12.5531 13.0656 13.1482 12.3449Z" fill="url(#paint19_radial_3_962)" style="mix-blend-mode:lighten"/>
</g>
<path id="Vector_36" d="M15.6191 14.1417C16.1716 13.6779 16.4501 13.14 16.2413 12.9404C16.0324 12.7408 15.4152 12.9551 14.8627 13.419C14.3102 13.8829 14.0316 14.4207 14.2405 14.6203C14.4494 14.8199 15.0666 14.6056 15.6191 14.1417Z" fill="#CAF8FF"/>
<path id="Vector_37" style="mix-blend-mode:screen" d="M49.5208 17.3511C66.4213 16.68 79.4908 26.452 78.7265 39.0913C77.9623 51.7307 63.5644 62.4826 46.6639 63.1538C29.7634 63.8249 16.694 54.0529 17.492 41.3649C18.29 28.677 32.6541 17.9736 49.5208 17.3511Z" fill="url(#paint20_radial_3_962)" fill-opacity="0.6"/>
</g>
</g>
<g id="Vector_38" filter="url(#filter0_f_3_962)">
<path d="M33.9691 10H62.4459C68.4276 10 74.1643 12.5902 78.3941 17.2007C82.6238 21.8112 85 28.0645 85 34.5847V48.1877C85 54.7683 82.6018 61.0794 78.3329 65.7326C74.064 70.3859 68.2742 73 62.2371 73H31.7809C26.0043 73 20.4642 70.4986 16.3795 66.0461C12.2948 61.5937 10 55.5548 10 49.2581V36.1271C10 29.1978 12.5253 22.5522 17.0204 17.6524C21.5155 12.7527 27.6121 10 33.9691 10Z" fill="white" fill-opacity="0.2"/>
</g>
</g>
<defs>
<filter id="filter0_f_3_962" x="0" y="0" width="95" height="83" filterUnits="userSpaceOnUse" color-interpolation-filters="sRGB">
<feFlood flood-opacity="0" result="BackgroundImageFix"/>
<feBlend mode="normal" in="SourceGraphic" in2="BackgroundImageFix" result="shape"/>
<feGaussianBlur stdDeviation="5" result="effect1_foregroundBlur_3_962"/>
</filter>
<radialGradient id="paint0_radial_3_962" cx="0" cy="0" r="1" gradientUnits="userSpaceOnUse" gradientTransform="translate(47.8061 39.3109) scale(49.7871 49.5347)">
<stop stop-color="#1FFF7E" stop-opacity="0.4"/>
<stop offset="0.21" stop-color="#17B861" stop-opacity="0.57"/>
<stop offset="0.56" stop-color="#0C5439" stop-opacity="0.8"/>
<stop offset="0.83" stop-color="#051720" stop-opacity="0.95"/>
<stop offset="1" stop-color="#020017"/>
</radialGradient>
<radialGradient id="paint1_radial_3_962" cx="0" cy="0" r="1" gradientUnits="userSpaceOnUse" gradientTransform="translate(47.744 58.061) rotate(-86.8028) scale(60.2425 60.5476)">
<stop stop-color="#0DDD6D" stop-opacity="0.47"/>
<stop offset="0.697228" stop-color="#03140B" stop-opacity="0.96"/>
</radialGradient>
<radialGradient id="paint2_radial_3_962" cx="0" cy="0" r="1" gradientUnits="userSpaceOnUse" gradientTransform="translate(96.8794 12.9648) rotate(148.644) scale(43.3606 48.4514)">
<stop stop-color="#1FFF7E" stop-opacity="0.3"/>
<stop stop-color="#1FFF7E" stop-opacity="0.43"/>
<stop offset="0.69" stop-color="#0B4F37" stop-opacity="0.78"/>
<stop offset="0.94" stop-color="#020017"/>
</radialGradient>
<radialGradient id="paint3_radial_3_962" cx="0" cy="0" r="1" gradientUnits="userSpaceOnUse" gradientTransform="translate(25.9809 22.0108) rotate(40.0965) scale(18.9685 22.3637)">
<stop stop-color="#1FFF7E" stop-opacity="0.3"/>
<stop offset="0.09" stop-color="#1CE574" stop-opacity="0.37"/>
<stop offset="0.7" stop-color="#094031" stop-opacity="0.82"/>
<stop offset="1" stop-color="#020017"/>
</radialGradient>
<radialGradient id="paint4_radial_3_962" cx="0" cy="0" r="1" gradientUnits="userSpaceOnUse" gradientTransform="translate(21.6424 61.8213) rotate(-53.93) scale(4.5758 4.58299)">
<stop stop-color="#00B359"/>
<stop offset="0.13" stop-color="#009148"/>
<stop offset="0.34" stop-color="#005E2F"/>
<stop offset="0.54" stop-color="#00351A"/>
<stop offset="0.73" stop-color="#00180C"/>
<stop offset="0.89" stop-color="#000603"/>
<stop offset="1"/>
</radialGradient>
<radialGradient id="paint5_radial_3_962" cx="0" cy="0" r="1" gradientUnits="userSpaceOnUse" gradientTransform="translate(77.0944 21.4561) rotate(-31.8747) scale(3.65453 5.0347)">
<stop stop-color="#00B359"/>
<stop offset="0.13" stop-color="#009148"/>
<stop offset="0.34" stop-color="#005E2F"/>
<stop offset="0.54" stop-color="#00351A"/>
<stop offset="0.73" stop-color="#00180C"/>
<stop offset="0.89" stop-color="#000603"/>
<stop offset="1"/>
</radialGradient>
<radialGradient id="paint6_radial_3_962" cx="0" cy="0" r="1" gradientUnits="userSpaceOnUse" gradientTransform="translate(73.6037 61.9823) rotate(50.5678) scale(5.49681 9.59371)">
<stop stop-color="#CEE900"/>
<stop offset="0.04" stop-color="#AEC500"/>
<stop offset="0.1" stop-color="#869700"/>
<stop offset="0.17" stop-color="#626F00"/>
<stop offset="0.24" stop-color="#444C00"/>
<stop offset="0.31" stop-color="#2B3000"/>
<stop offset="0.39" stop-color="#181B00"/>
<stop offset="0.47" stop-color="#0A0C00"/>
<stop offset="0.57" stop-color="#020300"/>
<stop offset="0.72"/>
</radialGradient>
<radialGradient id="paint7_radial_3_962" cx="0" cy="0" r="1" gradientUnits="userSpaceOnUse" gradientTransform="translate(30.1553 14.5088) rotate(-73.9775) scale(2.81095 2.82309)">
<stop stop-color="#00B359"/>
<stop offset="0.13" stop-color="#009148"/>
<stop offset="0.34" stop-color="#005E2F"/>
<stop offset="0.54" stop-color="#00351A"/>
<stop offset="0.73" stop-color="#00180C"/>
<stop offset="0.89" stop-color="#000603"/>
<stop offset="1"/>
</radialGradient>
<radialGradient id="paint8_radial_3_962" cx="0" cy="0" r="1" gradientUnits="userSpaceOnUse" gradientTransform="translate(24.7245 15.2807) rotate(-143.27) scale(3.87224 3.86669)">
<stop stop-color="#00B359"/>
<stop offset="0.13" stop-color="#009148"/>
<stop offset="0.34" stop-color="#005E2F"/>
<stop offset="0.54" stop-color="#00351A"/>
<stop offset="0.73" stop-color="#00180C"/>
<stop offset="0.89" stop-color="#000603"/>
<stop offset="1"/>
</radialGradient>
<radialGradient id="paint9_radial_3_962" cx="0" cy="0" r="1" gradientUnits="userSpaceOnUse" gradientTransform="translate(81.3622 24.5438) rotate(-71.4775) scale(2.4423 2.45222)">
<stop stop-color="#00B359"/>
<stop offset="0.13" stop-color="#009148"/>
<stop offset="0.34" stop-color="#005E2F"/>
<stop offset="0.54" stop-color="#00351A"/>
<stop offset="0.73" stop-color="#00180C"/>
<stop offset="0.89" stop-color="#000603"/>
<stop offset="1"/>
</radialGradient>
<radialGradient id="paint10_radial_3_962" cx="0" cy="0" r="1" gradientUnits="userSpaceOnUse" gradientTransform="translate(80.5533 12.6841) rotate(129.842) scale(3.63511 4.59266)">
<stop stop-color="#00C2FF" stop-opacity="0.87"/>
<stop offset="1" stop-opacity="0"/>
</radialGradient>
<radialGradient id="paint11_radial_3_962" cx="0" cy="0" r="1" gradientUnits="userSpaceOnUse" gradientTransform="translate(18.6123 12) rotate(-102.842) scale(4.17067 5.28684)">
<stop offset="0.1875" stop-color="#00C2FF" stop-opacity="0.87"/>
<stop offset="1" stop-opacity="0"/>
</radialGradient>
<radialGradient id="paint12_radial_3_962" cx="0" cy="0" r="1" gradientUnits="userSpaceOnUse" gradientTransform="translate(79.4608 75.7375) rotate(-110.193) scale(5.05659 6.02749)">
<stop stop-color="#03C3FF" stop-opacity="0.58"/>
<stop offset="1" stop-opacity="0"/>
</radialGradient>
<radialGradient id="paint13_radial_3_962" cx="0" cy="0" r="1" gradientUnits="userSpaceOnUse" gradientTransform="translate(17.7464 78.062) rotate(-54.748) scale(4.39693 6.35853)">
<stop stop-color="#03C3FF" stop-opacity="0.58"/>
<stop offset="1" stop-opacity="0"/>
</radialGradient>
<radialGradient id="paint14_radial_3_962" cx="0" cy="0" r="1" gradientUnits="userSpaceOnUse" gradientTransform="translate(13.0558 76.015) rotate(-54.748) scale(1.92993 2.79093)">
<stop stop-color="#03C3FF" stop-opacity="0.58"/>
<stop offset="1" stop-opacity="0"/>
</radialGradient>
<radialGradient id="paint15_radial_3_962" cx="0" cy="0" r="1" gradientUnits="userSpaceOnUse" gradientTransform="translate(14.5336 14.1322) rotate(30.0433) scale(3.64138 4.58476)">
<stop stop-color="#00C2FF" stop-opacity="0.87"/>
<stop offset="1" stop-opacity="0"/>
</radialGradient>
<radialGradient id="paint16_radial_3_962" cx="0" cy="0" r="1" gradientUnits="userSpaceOnUse" gradientTransform="translate(79.4608 75.7375) rotate(-110.193) scale(5.05659 6.02749)">
<stop stop-color="#03C3FF" stop-opacity="0.58"/>
<stop offset="1" stop-opacity="0"/>
</radialGradient>
<radialGradient id="paint17_radial_3_962" cx="0" cy="0" r="1" gradientUnits="userSpaceOnUse" gradientTransform="translate(17.7464 78.062) rotate(-54.748) scale(4.39693 6.35853)">
<stop stop-color="#03C3FF" stop-opacity="0.58"/>
<stop offset="1" stop-opacity="0"/>
</radialGradient>
<radialGradient id="paint18_radial_3_962" cx="0" cy="0" r="1" gradientUnits="userSpaceOnUse" gradientTransform="translate(13.0558 76.015) rotate(-54.748) scale(1.92993 2.79093)">
<stop stop-color="#03C3FF" stop-opacity="0.58"/>
<stop offset="1" stop-opacity="0"/>
</radialGradient>
<radialGradient id="paint19_radial_3_962" cx="0" cy="0" r="1" gradientUnits="userSpaceOnUse" gradientTransform="translate(15.5315 13.746) rotate(30.0433) scale(2.76785 3.48492)">
<stop stop-color="#00C2FF" stop-opacity="0.87"/>
<stop offset="1" stop-opacity="0"/>
</radialGradient>
<radialGradient id="paint20_radial_3_962" cx="0" cy="0" r="1" gradientUnits="userSpaceOnUse" gradientTransform="translate(46.1112 38.4484) rotate(-76.0157) scale(21.1159 27.5272)">
<stop stop-color="#009148"/>
<stop offset="1" stop-opacity="0"/>
</radialGradient>
</defs>
</svg>
