<svg width="90" height="89" viewBox="0 0 90 89" fill="none" xmlns="http://www.w3.org/2000/svg">
<g id="Buttons/Square/ArrowRight-Bold/Default">
<g id="Button/Square/Fill">
<g id="GroupSmallButton">
<g id="Group">
<path id="Union" fill-rule="evenodd" clip-rule="evenodd" d="M63.3747 0.000976562H29.0295C21.3304 0.000976562 13.9466 3.02556 8.50254 8.40936C3.05846 13.7932 0 21.0952 0 28.709V54.229C0 55.4487 0.0864845 56.6595 0.256095 57.8535V61.817C0.256095 68.7614 3.0288 75.4214 7.96424 80.3318C12.8997 85.2422 19.5936 88.0009 26.5733 88.0009H59.7414C63.6461 88.0029 67.5128 87.2395 71.1208 85.7542C74.7288 84.269 78.0073 82.091 80.769 79.3447C83.5307 76.5984 85.7215 73.3377 87.2162 69.7488C88.7109 66.1599 89.4802 62.3131 89.4802 58.4283V56.57C89.8237 54.7854 90 52.9607 90 51.1181V26.3315C90 19.3482 87.1948 12.6509 82.2016 7.713C77.2084 2.77507 70.4361 0.000976562 63.3747 0.000976562Z" fill="#444444"/>
<path id="Vector" d="M31.9952 6.17651H61.7116C69.2142 6.17651 76.4094 9.12465 81.7145 14.3724C87.0196 19.6201 90 26.7375 90 34.1589V58.4284C90 62.3132 89.2262 66.16 87.7228 69.7489C86.2194 73.3378 84.0159 76.5985 81.2382 79.3448C78.4604 82.0911 75.1629 84.2691 71.5339 85.7543C67.905 87.2396 64.0158 88.003 60.0885 88.001H26.7277C19.7074 88.001 12.9746 85.2423 8.0105 80.3319C3.04639 75.4215 0 68.6998 0 61.7554V37.4396C0 29.1133 3.60136 21.2593 9.55331 15.3717C15.5053 9.48412 23.5778 6.17651 31.9952 6.17651Z" fill="#3EA6B7"/>
<g id="Vector_2" style="mix-blend-mode:screen">
<path d="M29.0295 0.000976562H63.3747C70.4361 0.000976562 77.2084 2.77507 82.2016 7.713C87.1948 12.6509 90 19.3482 90 26.3315V51.1181C90 58.8474 86.8973 66.2606 81.3736 71.7289C75.8499 77.1972 68.357 80.2734 60.5412 80.2816H26.3443C19.3574 80.2816 12.6566 77.5368 7.71607 72.6509C2.77555 67.7651 0 61.1386 0 54.229V28.709C0 21.0952 3.05846 13.7932 8.50254 8.40936C13.9466 3.02556 21.3304 0.000976563 29.0295 0.000976562Z" fill="#9FDEF4"/>
</g>
<g id="Vector_3" style="mix-blend-mode:multiply">
<path d="M69.827 56.3522L18.6201 57.1241C18.6201 57.1241 6.20628 59.4399 1.59766 70.0616C3.3376 75.2838 6.68711 79.8278 11.1704 83.0482C15.6538 86.2686 21.043 88.0016 26.5727 88.0012H59.7408C66.2143 87.9985 72.8991 85.93 78.0607 82.0429C83.2223 78.1558 86.8616 73.1159 88.6219 66.9179C82.353 56.2035 69.827 56.3522 69.827 56.3522Z" fill="#CED6FF"/>
</g>
<path id="Vector_4" d="M31.2285 13.3167H59.8035C65.8058 13.3167 71.5624 15.689 75.8067 19.9118C80.051 24.1346 82.4354 29.8619 82.4354 35.8338V49.1929C82.2414 55.1938 80.3181 61.353 76.0345 65.6148C71.7509 69.8767 65.5604 71.7903 59.594 71.7903H29.0328C23.2362 71.7903 17.677 69.4992 13.5782 65.4212C9.47944 61.3432 7.17676 56.0497 7.17676 50.045V37.2464C7.17676 30.8999 9.71077 24.8132 14.2213 20.3255C18.7319 15.8378 24.8496 13.3167 31.2285 13.3167Z" fill="#037219"/>
<g id="Vector_5" style="mix-blend-mode:multiply">
<path d="M63.0156 0.000981425H28.8777C23.0673 -0.0023821 17.3911 1.73916 12.5918 4.99779C7.79243 8.25642 4.09338 12.8804 1.97852 18.2648C16.173 19.9301 30.4513 20.7909 44.744 20.8431C57.4139 20.8431 73.4114 20.6424 87.245 14.6676C85.1204 10.1149 81.8553 6.8258 77.6021 4.12598C73.3489 1.42615 68.0607 -0.000643946 63.0156 0.000981425Z" fill="#D7E1FF"/>
</g>
<path id="Vector_6" d="M31.2285 9.45703H59.8035C65.8058 9.45703 71.5624 11.8294 75.8067 16.0522C80.051 20.2749 82.4354 26.0023 82.4354 31.9742V44.4331C82.4354 50.4603 80.0289 56.2407 75.7453 60.5025C71.4617 64.7644 65.6519 67.1587 59.594 67.1587H29.0328C23.2362 67.1587 17.677 64.8677 13.5782 60.7897C9.47944 56.7117 7.17676 51.1807 7.17676 45.4135V33.3868C7.17676 27.0402 9.71077 20.9536 14.2213 16.4659C18.7319 11.9782 24.8496 9.45703 31.2285 9.45703Z" fill="#1DA052"/>
<path id="Vector_7" style="mix-blend-mode:screen" d="M31.2285 9.45703H59.8035C65.8058 9.45703 71.5624 11.8294 75.8067 16.0522C80.051 20.2749 82.4354 26.0023 82.4354 31.9742V44.4331C82.4354 50.4603 82.4354 56.3517 77.1983 60.7897C72.9147 65.0516 65.6519 67.1587 59.594 67.1587H29.0328C23.2362 67.1587 16.9006 65.4473 12.8018 61.3692C7.17676 56.3517 7.17676 51.1807 7.17676 45.4135V33.3868C7.17676 27.0402 9.71077 20.9536 14.2213 16.4659C18.7319 11.9782 24.8496 9.45703 31.2285 9.45703Z" fill="url(#paint0_radial_3_935)"/>
<path id="Vector_8" style="mix-blend-mode:screen" opacity="0.68" d="M29.0327 70.2464H59.5939C73.7072 70.2464 83.7934 60.2113 82.6296 45.1587C65.4757 46.0309 61.6813 54.4218 43.4486 54.4218C26.7675 54.4218 21.7244 45.0584 7.17663 43.8696C4.65556 64.8429 21.724 70.2464 29.0327 70.2464Z" fill="url(#paint1_radial_3_935)"/>
<path id="Vector_9" style="mix-blend-mode:screen" opacity="0.73" d="M61.1924 9.50342C61.2932 25.4746 67.8881 38.5974 82.4355 36.6676V31.9743C82.4345 26.2422 80.2363 20.7263 76.2891 16.5509C72.3419 12.3756 66.9428 9.85516 61.1924 9.50342Z" fill="url(#paint2_radial_3_935)"/>
<path id="Vector_10" style="mix-blend-mode:screen" opacity="0.73" d="M7.20801 32.2984C28.327 34.4675 38.7934 20.843 38.7934 9.45703H31.2287C25.0402 9.4586 19.0905 11.8334 14.6168 16.0875C10.143 20.3416 7.48948 26.1477 7.20801 32.2984Z" fill="url(#paint3_radial_3_935)"/>
<path id="Vector_11" d="M19.8843 61.2591C20.2174 60.7121 19.8932 59.9106 19.1602 59.4688C18.4272 59.027 17.5631 59.1122 17.23 59.6591C16.8969 60.206 17.2211 61.0076 17.9541 61.4494C18.6871 61.8912 19.5512 61.806 19.8843 61.2591Z" fill="#FFF39C"/>
<path id="Vector_12" style="mix-blend-mode:screen" d="M20.8166 56.7145C21.6404 57.1472 22.3167 57.8134 22.7599 58.6286C23.2032 59.4438 23.3935 60.3715 23.3067 61.2943C23.22 62.2172 22.8601 63.0937 22.2726 63.813C21.685 64.5323 20.8963 65.0621 20.0062 65.3353C19.116 65.6086 18.1643 65.613 17.2716 65.3481C16.3789 65.0832 15.5852 64.5608 14.9909 63.8471C14.3967 63.1333 14.0285 62.2602 13.933 61.3382C13.8375 60.4162 14.019 59.4868 14.4545 58.6675C15.0382 57.5694 16.0362 56.7469 17.2292 56.3806C18.4222 56.0144 19.7126 56.1345 20.8166 56.7145Z" fill="url(#paint4_radial_3_935)"/>
<path id="Vector_13" d="M74.8923 21.0233C75.4451 20.6971 75.5779 19.9036 75.1889 19.2509C74.7998 18.5981 74.0363 18.3334 73.4834 18.6596C72.9306 18.9858 72.7978 19.7794 73.1869 20.4321C73.5759 21.0848 74.3395 21.3495 74.8923 21.0233Z" fill="#FFF39C"/>
<path id="Vector_14" style="mix-blend-mode:screen" d="M76.6782 18.6355C78.0748 20.7043 77.9972 23.1899 76.4998 24.1934C75.0024 25.1969 72.6593 24.3401 71.2549 22.279C69.8506 20.218 69.936 17.7247 71.4256 16.7211C72.9153 15.7176 75.2584 16.5745 76.6782 18.6355Z" fill="url(#paint5_radial_3_935)"/>
<path id="Vector_15" style="mix-blend-mode:screen" d="M72.2333 63.2991C69.9057 64.843 67.2678 65.0437 66.3678 63.7159C65.4678 62.3882 66.6393 60.0416 68.9746 58.4745C71.31 56.9075 73.9402 56.7223 74.8402 58.0577C75.7402 59.3931 74.5686 61.7012 72.2333 63.2991Z" fill="url(#paint6_radial_3_935)"/>
<path id="Vector_16" d="M71.223 61.8751C72.1872 61.2161 72.6875 60.2744 72.3405 59.772C71.9936 59.2695 70.9307 59.3964 69.9665 60.0555C69.0023 60.7145 68.502 61.6561 68.849 62.1586C69.1959 62.6611 70.2588 62.5342 71.223 61.8751Z" fill="#DAFFCC"/>
<path id="Vector_17" d="M28.0559 13.5117C28.0815 13.1374 27.6967 12.8065 27.1965 12.7727C26.6964 12.7389 26.2701 13.0149 26.2446 13.3892C26.219 13.7635 26.6037 14.0943 27.1039 14.1282C27.6041 14.162 28.0303 13.886 28.0559 13.5117Z" fill="#FFF39C"/>
<path id="Vector_18" style="mix-blend-mode:screen" d="M27.3108 10.893C27.8571 10.8976 28.3897 11.0633 28.8413 11.369C29.293 11.6748 29.6433 12.1069 29.8481 12.6108C30.0529 13.1147 30.1029 13.6677 29.9918 14.1998C29.8807 14.732 29.6135 15.2194 29.224 15.6004C28.8345 15.9815 28.3401 16.2391 27.8035 16.3406C27.2668 16.4422 26.712 16.3831 26.209 16.1709C25.7061 15.9587 25.2777 15.6029 24.9781 15.1485C24.6784 14.694 24.5209 14.1614 24.5255 13.6179C24.5275 13.2567 24.6013 12.8995 24.7425 12.5668C24.8838 12.2341 25.0898 11.9324 25.3486 11.6792C25.6075 11.426 25.9141 11.2261 26.2509 11.0912C26.5876 10.9563 26.9478 10.8889 27.3108 10.893Z" fill="url(#paint7_radial_3_935)"/>
<path id="Vector_19" d="M22.5707 14.7567C23.0229 14.167 23.0278 13.4142 22.5815 13.0755C22.1352 12.7368 21.4068 12.9403 20.9546 13.53C20.5023 14.1198 20.4975 14.8725 20.9438 15.2113C21.3901 15.55 22.1185 15.3465 22.5707 14.7567Z" fill="#FFF39C"/>
<path id="Vector_20" style="mix-blend-mode:screen" d="M18.7062 11.8421C19.1589 11.1717 19.8012 10.6498 20.552 10.3426C21.3028 10.0354 22.1283 9.95656 22.9241 10.1161C23.7199 10.2757 24.4503 10.6665 25.0229 11.2391C25.5954 11.8117 25.9844 12.5404 26.1407 13.333C26.297 14.1256 26.2135 14.9465 25.9009 15.6919C25.5882 16.4373 25.0604 17.0737 24.3842 17.5206C23.7079 17.9675 22.9137 18.2049 22.1019 18.2026C21.2901 18.2004 20.4972 17.9587 19.8234 17.5081C19.3754 17.2097 18.991 16.8262 18.6922 16.3797C18.3935 15.9331 18.1863 15.4323 18.0825 14.9059C17.9787 14.3795 17.9804 13.8379 18.0874 13.3122C18.1944 12.7864 18.4047 12.2869 18.7062 11.8421Z" fill="url(#paint8_radial_3_935)"/>
<path id="Vector_21" d="M78.7434 23.8052C78.769 23.4309 78.3842 23.1 77.884 23.0662C77.3839 23.0323 76.9576 23.3083 76.9321 23.6826C76.9065 24.0569 77.2912 24.3878 77.7914 24.4216C78.2916 24.4555 78.7178 24.1795 78.7434 23.8052Z" fill="#FFF39C"/>
<path id="Vector_22" style="mix-blend-mode:screen" d="M78.3884 20.8431C79.0011 20.8482 79.5985 21.0337 80.1054 21.376C80.6123 21.7184 81.006 22.2025 81.2369 22.7671C81.4678 23.3317 81.5255 23.9518 81.4028 24.549C81.2801 25.1462 80.9825 25.694 80.5475 26.1232C80.1124 26.5524 79.5594 26.8439 78.9581 26.961C78.3568 27.078 77.7342 27.0154 77.1686 26.7809C76.6031 26.5465 76.1199 26.1507 75.7801 25.6435C75.4402 25.1363 75.2588 24.5404 75.2588 23.9308C75.2599 23.5234 75.3418 23.1203 75.4998 22.7445C75.6578 22.3687 75.8888 22.0276 76.1796 21.7408C76.4703 21.4539 76.815 21.227 77.1941 21.0729C77.5731 20.9189 77.979 20.8408 78.3884 20.8431Z" fill="url(#paint9_radial_3_935)"/>
<g id="Vector_23" style="mix-blend-mode:screen">
<path d="M79.8996 8.91389C80.5044 9.60759 80.9579 10.4484 81.2027 11.3299C81.4474 12.2114 81.4723 13.094 81.2743 13.8659C81.0763 14.6377 80.6643 15.2642 80.0904 15.666C79.5164 16.0677 78.8064 16.2267 78.0503 16.1228C77.2941 16.0189 76.5258 15.6567 75.8425 15.0822C75.1592 14.5076 74.5918 13.7466 74.212 12.8953C73.8322 12.044 73.6572 11.1408 73.7091 10.3001C73.7609 9.45931 74.0373 8.71879 74.5033 8.17227C75.1284 7.44436 76.0462 7.11388 77.0569 7.25279C78.0676 7.39169 79.0893 7.98873 79.8996 8.91389Z" fill="url(#paint10_radial_3_935)" style="mix-blend-mode:lighten"/>
</g>
<path id="Vector_24" d="M78.3088 11.0842C77.74 10.6354 77.0718 10.5314 76.8164 10.8518C76.5611 11.1722 76.8152 11.7958 77.3841 12.2445C77.9529 12.6933 78.6211 12.7974 78.8764 12.477C79.1318 12.1566 78.8777 11.533 78.3088 11.0842Z" fill="#CAF8FF"/>
<g id="Vector_25" style="mix-blend-mode:screen">
<path d="M16.9753 13.8184C16.0641 13.9646 15.1068 13.9053 14.2248 13.648C13.3427 13.3906 12.5755 12.9469 12.0203 12.3729C11.4652 11.7989 11.1469 11.1205 11.106 10.4235C11.065 9.72646 11.3031 9.04226 11.7902 8.45747C12.2773 7.87268 12.9914 7.4136 13.8421 7.13835C14.6928 6.86309 15.642 6.78405 16.5693 6.91122C17.4967 7.03838 18.3605 7.36605 19.0515 7.85273C19.7426 8.3394 20.2297 8.9632 20.4512 9.64516C20.7438 10.5572 20.5428 11.5075 19.8918 12.2892C19.2407 13.0708 18.1925 13.6204 16.9753 13.8184Z" fill="url(#paint11_radial_3_935)" style="mix-blend-mode:lighten"/>
</g>
<path id="Vector_26" d="M15.9575 11.3302C16.8329 11.0166 17.4297 10.4504 17.2904 10.0657C17.1512 9.68095 16.3286 9.62332 15.4532 9.93697C14.5778 10.2506 13.9811 10.8168 14.1203 11.2015C14.2596 11.5862 15.0821 11.6439 15.9575 11.3302Z" fill="#CAF8FF"/>
<g id="Vector_27" style="mix-blend-mode:screen">
<path d="M78.1742 79.496C77.0514 79.8987 75.8533 80.0131 74.7314 79.8245C73.6096 79.636 72.6145 79.1531 71.8722 78.4369C71.1299 77.7207 70.6737 76.8034 70.5614 75.8012C70.4491 74.7991 70.6857 73.757 71.2413 72.807C71.7969 71.857 72.6465 71.0418 73.6826 70.4646C74.7186 69.8874 75.8945 69.5741 77.0613 69.5644C78.2282 69.5547 79.3335 69.8491 80.2374 70.4102C81.1414 70.9713 81.8032 71.774 82.1392 72.7166C82.5841 73.9779 82.417 75.3982 81.6744 76.6679C80.9318 77.9377 79.6737 78.9542 78.1742 79.496Z" fill="url(#paint12_radial_3_935)" style="mix-blend-mode:lighten"/>
</g>
<ellipse id="Ellipse" cx="2.71174" cy="0.895183" rx="2.71174" ry="0.895183" transform="matrix(0.852819 -0.522206 0.52607 0.850441 73.9141 75.6758)" fill="#BFF3FF"/>
<g id="Vector_28" style="mix-blend-mode:screen">
<path d="M12.1802 80.6316C11.1873 79.8562 10.3674 78.8888 9.82434 77.8517C9.28127 76.8146 9.03941 75.7546 9.12941 74.8057C9.2194 73.8569 9.6372 73.0619 10.3299 72.5214C11.0226 71.981 11.9591 71.7194 13.0207 71.7697C14.0824 71.82 15.2215 72.18 16.2939 72.8041C17.3662 73.4283 18.3236 74.2884 19.0448 75.2757C19.766 76.2631 20.2186 77.3331 20.3453 78.3504C20.472 79.3678 20.2671 80.2867 19.7565 80.9907C19.0703 81.9289 17.8891 82.4176 16.4701 82.3503C15.0511 82.283 13.5092 81.6653 12.1802 80.6316Z" fill="url(#paint13_radial_3_935)" style="mix-blend-mode:lighten"/>
</g>
<g id="Vector_29" style="mix-blend-mode:screen">
<path d="M8.92941 76.5823C8.4936 76.242 8.13373 75.8173 7.89536 75.3621C7.65699 74.9069 7.55083 74.4416 7.59033 74.0252C7.62984 73.6087 7.81322 73.2597 8.11726 73.0225C8.42131 72.7853 8.83234 72.6705 9.29833 72.6926C9.76432 72.7146 10.2643 72.8727 10.735 73.1466C11.2057 73.4206 11.6259 73.7981 11.9425 74.2315C12.259 74.6648 12.4577 75.1345 12.5133 75.581C12.5689 76.0276 12.479 76.4309 12.2548 76.7399C11.9537 77.1517 11.4352 77.3662 10.8124 77.3367C10.1895 77.3071 9.51274 77.036 8.92941 76.5823Z" fill="url(#paint14_radial_3_935)" style="mix-blend-mode:lighten"/>
</g>
<ellipse id="Ellipse_2" cx="2.82661" cy="0.799472" rx="2.82661" ry="0.799472" transform="matrix(0.881154 0.47283 -0.365938 0.930639 12.4395 75.4099)" fill="#BFF3FF"/>
<ellipse id="Ellipse_3" cx="1.00559" cy="0.508752" rx="1.00559" ry="0.508752" transform="matrix(0.823918 0.566709 -0.57062 0.821214 9.76367 74.0972)" fill="#BFF3FF"/>
<g id="Vector_30" style="mix-blend-mode:screen">
<path d="M8.39817 11.2899C8.98564 10.5816 9.74402 9.99738 10.5773 9.61132C11.4106 9.22526 12.2812 9.05468 13.0791 9.12118C13.877 9.18769 14.5662 9.48828 15.0594 9.9849C15.5527 10.4815 15.8278 11.1518 15.85 11.911C15.8721 12.6702 15.6403 13.484 15.184 14.2496C14.7276 15.0151 14.0671 15.6978 13.2862 16.2114C12.5053 16.725 11.639 17.0463 10.797 17.1346C9.95505 17.2229 9.17527 17.0743 8.55639 16.7075C7.73139 16.2147 7.25186 15.3688 7.22223 14.3541C7.19259 13.3394 7.61525 12.238 8.39817 11.2899Z" fill="url(#paint15_radial_3_935)" style="mix-blend-mode:lighten"/>
</g>
<path id="Vector_31" d="M12.6191 13.1426C13.1716 12.6787 13.4501 12.1409 13.2413 11.9413C13.0324 11.7417 12.4152 11.9559 11.8627 12.4198C11.3102 12.8837 11.0316 13.4216 11.2405 13.6211C11.4494 13.8207 12.0666 13.6065 12.6191 13.1426Z" fill="#CAF8FF"/>
<g id="Vector_32" style="mix-blend-mode:screen">
<path d="M78.1742 79.496C77.0514 79.8987 75.8533 80.0131 74.7314 79.8245C73.6096 79.636 72.6145 79.1531 71.8722 78.4369C71.1299 77.7207 70.6737 76.8034 70.5614 75.8012C70.4491 74.7991 70.6857 73.757 71.2413 72.807C71.7969 71.857 72.6465 71.0418 73.6826 70.4646C74.7186 69.8874 75.8945 69.5741 77.0613 69.5644C78.2282 69.5547 79.3335 69.8491 80.2374 70.4102C81.1414 70.9713 81.8032 71.774 82.1392 72.7166C82.5841 73.9779 82.417 75.3982 81.6744 76.6679C80.9318 77.9377 79.6737 78.9542 78.1742 79.496Z" fill="url(#paint16_radial_3_935)" style="mix-blend-mode:lighten"/>
</g>
<ellipse id="Ellipse_4" cx="2.71174" cy="0.895183" rx="2.71174" ry="0.895183" transform="matrix(0.852819 -0.522206 0.52607 0.850441 73.9141 75.6758)" fill="#BFF3FF"/>
<g id="Vector_33" style="mix-blend-mode:screen">
<path d="M12.1802 80.6316C11.1873 79.8562 10.3674 78.8888 9.82434 77.8517C9.28127 76.8146 9.03941 75.7546 9.12941 74.8057C9.2194 73.8569 9.6372 73.0619 10.3299 72.5214C11.0226 71.981 11.9591 71.7194 13.0207 71.7697C14.0824 71.82 15.2215 72.18 16.2939 72.8041C17.3662 73.4283 18.3236 74.2884 19.0448 75.2757C19.766 76.2631 20.2186 77.3331 20.3453 78.3504C20.472 79.3678 20.2671 80.2867 19.7565 80.9907C19.0703 81.9289 17.8891 82.4176 16.4701 82.3503C15.0511 82.283 13.5092 81.6653 12.1802 80.6316Z" fill="url(#paint17_radial_3_935)" style="mix-blend-mode:lighten"/>
</g>
<g id="Vector_34" style="mix-blend-mode:screen">
<path d="M8.92941 76.5823C8.4936 76.242 8.13373 75.8173 7.89536 75.3621C7.65699 74.9069 7.55083 74.4416 7.59033 74.0252C7.62984 73.6087 7.81322 73.2597 8.11726 73.0225C8.42131 72.7853 8.83234 72.6705 9.29833 72.6926C9.76432 72.7146 10.2643 72.8727 10.735 73.1466C11.2057 73.4206 11.6259 73.7981 11.9425 74.2315C12.259 74.6648 12.4577 75.1345 12.5133 75.581C12.5689 76.0276 12.479 76.4309 12.2548 76.7399C11.9537 77.1517 11.4352 77.3662 10.8124 77.3367C10.1895 77.3071 9.51274 77.036 8.92941 76.5823Z" fill="url(#paint18_radial_3_935)" style="mix-blend-mode:lighten"/>
</g>
<ellipse id="Ellipse_5" cx="2.82661" cy="0.799472" rx="2.82661" ry="0.799472" transform="matrix(0.881154 0.47283 -0.365938 0.930639 12.4395 75.4099)" fill="#BFF3FF"/>
<ellipse id="Ellipse_6" cx="1.00559" cy="0.508752" rx="1.00559" ry="0.508752" transform="matrix(0.823918 0.566709 -0.57062 0.821214 9.76367 74.0972)" fill="#BFF3FF"/>
<g id="Vector_35" style="mix-blend-mode:screen">
<path d="M10.1482 11.3459C10.5948 10.8074 11.1712 10.3634 11.8046 10.0699C12.4379 9.77649 13.0998 9.64683 13.7062 9.69738C14.3127 9.74793 14.8366 9.97642 15.2115 10.3539C15.5864 10.7314 15.7955 11.2409 15.8124 11.818C15.8292 12.395 15.6531 13.0136 15.3062 13.5955C14.9593 14.1774 14.4572 14.6964 13.8636 15.0867C13.27 15.4771 12.6116 15.7213 11.9716 15.7884C11.3316 15.8556 10.7389 15.7426 10.2685 15.4638C9.64138 15.0892 9.27689 14.4463 9.25436 13.675C9.23184 12.9037 9.55311 12.0665 10.1482 11.3459Z" fill="url(#paint19_radial_3_935)" style="mix-blend-mode:lighten"/>
</g>
<path id="Vector_36" d="M12.6191 13.1426C13.1716 12.6787 13.4501 12.1409 13.2413 11.9413C13.0324 11.7417 12.4152 11.9559 11.8627 12.4198C11.3102 12.8837 11.0316 13.4216 11.2405 13.6211C11.4494 13.8207 12.0666 13.6065 12.6191 13.1426Z" fill="#CAF8FF"/>
<path id="Vector_37" style="mix-blend-mode:screen" d="M46.5208 16.3522C63.4213 15.6811 76.4908 25.453 75.7265 38.0924C74.9623 50.7318 60.5644 61.4837 43.6639 62.1549C26.7634 62.826 13.694 53.054 14.492 40.366C15.29 27.6781 29.6541 16.9747 46.5208 16.3522Z" fill="url(#paint20_radial_3_935)" fill-opacity="0.6"/>
</g>
</g>
</g>
<g id="Frame">
<g id="Icon/ArrowRight-Bold" filter="url(#filter0_d_3_935)">
<path id="ArrowRight" d="M56.5551 34.6598C59.3736 36.8586 59.3736 41.0361 56.5551 43.2349L38.3555 57.4329C34.6649 60.312 29.1953 57.7518 29.1953 53.1453L29.1953 24.7494C29.1953 20.1429 34.6649 17.5827 38.3555 20.4618L56.5551 34.6598Z" fill="white"/>
</g>
</g>
</g>
<defs>
<filter id="filter0_d_3_935" x="29" y="19.001" width="30" height="42" filterUnits="userSpaceOnUse" color-interpolation-filters="sRGB">
<feFlood flood-opacity="0" result="BackgroundImageFix"/>
<feColorMatrix in="SourceAlpha" type="matrix" values="0 0 0 0 0 0 0 0 0 0 0 0 0 0 0 0 0 0 127 0" result="hardAlpha"/>
<feOffset dy="2"/>
<feComposite in2="hardAlpha" operator="out"/>
<feColorMatrix type="matrix" values="0 0 0 0 0 0 0 0 0 0.596667 0 0 0 0 0.296276 0 0 0 1 0"/>
<feBlend mode="normal" in2="BackgroundImageFix" result="effect1_dropShadow_3_935"/>
<feBlend mode="normal" in="SourceGraphic" in2="effect1_dropShadow_3_935" result="shape"/>
</filter>
<radialGradient id="paint0_radial_3_935" cx="0" cy="0" r="1" gradientUnits="userSpaceOnUse" gradientTransform="translate(44.8061 38.3117) scale(49.7871 49.5347)">
<stop stop-color="#1FFF7E" stop-opacity="0.4"/>
<stop offset="0.21" stop-color="#17B861" stop-opacity="0.57"/>
<stop offset="0.56" stop-color="#0C5439" stop-opacity="0.8"/>
<stop offset="0.83" stop-color="#051720" stop-opacity="0.95"/>
<stop offset="1" stop-color="#020017"/>
</radialGradient>
<radialGradient id="paint1_radial_3_935" cx="0" cy="0" r="1" gradientUnits="userSpaceOnUse" gradientTransform="translate(44.744 57.0619) rotate(-86.8028) scale(60.2425 60.5476)">
<stop stop-color="#0DDD6D" stop-opacity="0.47"/>
<stop offset="0.697228" stop-color="#03140B" stop-opacity="0.96"/>
</radialGradient>
<radialGradient id="paint2_radial_3_935" cx="0" cy="0" r="1" gradientUnits="userSpaceOnUse" gradientTransform="translate(93.8794 11.9658) rotate(148.644) scale(43.3606 48.4514)">
<stop stop-color="#1FFF7E" stop-opacity="0.3"/>
<stop stop-color="#1FFF7E" stop-opacity="0.43"/>
<stop offset="0.69" stop-color="#0B4F37" stop-opacity="0.78"/>
<stop offset="0.94" stop-color="#020017"/>
</radialGradient>
<radialGradient id="paint3_radial_3_935" cx="0" cy="0" r="1" gradientUnits="userSpaceOnUse" gradientTransform="translate(22.9809 21.0116) rotate(40.0965) scale(18.9685 22.3637)">
<stop stop-color="#1FFF7E" stop-opacity="0.3"/>
<stop offset="0.09" stop-color="#1CE574" stop-opacity="0.37"/>
<stop offset="0.7" stop-color="#094031" stop-opacity="0.82"/>
<stop offset="1" stop-color="#020017"/>
</radialGradient>
<radialGradient id="paint4_radial_3_935" cx="0" cy="0" r="1" gradientUnits="userSpaceOnUse" gradientTransform="translate(18.6424 60.8223) rotate(-53.93) scale(4.5758 4.58299)">
<stop stop-color="#00B359"/>
<stop offset="0.13" stop-color="#009148"/>
<stop offset="0.34" stop-color="#005E2F"/>
<stop offset="0.54" stop-color="#00351A"/>
<stop offset="0.73" stop-color="#00180C"/>
<stop offset="0.89" stop-color="#000603"/>
<stop offset="1"/>
</radialGradient>
<radialGradient id="paint5_radial_3_935" cx="0" cy="0" r="1" gradientUnits="userSpaceOnUse" gradientTransform="translate(74.0944 20.4572) rotate(-31.8747) scale(3.65453 5.0347)">
<stop stop-color="#00B359"/>
<stop offset="0.13" stop-color="#009148"/>
<stop offset="0.34" stop-color="#005E2F"/>
<stop offset="0.54" stop-color="#00351A"/>
<stop offset="0.73" stop-color="#00180C"/>
<stop offset="0.89" stop-color="#000603"/>
<stop offset="1"/>
</radialGradient>
<radialGradient id="paint6_radial_3_935" cx="0" cy="0" r="1" gradientUnits="userSpaceOnUse" gradientTransform="translate(70.6037 60.9834) rotate(50.5678) scale(5.49681 9.59371)">
<stop stop-color="#CEE900"/>
<stop offset="0.04" stop-color="#AEC500"/>
<stop offset="0.1" stop-color="#869700"/>
<stop offset="0.17" stop-color="#626F00"/>
<stop offset="0.24" stop-color="#444C00"/>
<stop offset="0.31" stop-color="#2B3000"/>
<stop offset="0.39" stop-color="#181B00"/>
<stop offset="0.47" stop-color="#0A0C00"/>
<stop offset="0.57" stop-color="#020300"/>
<stop offset="0.72"/>
</radialGradient>
<radialGradient id="paint7_radial_3_935" cx="0" cy="0" r="1" gradientUnits="userSpaceOnUse" gradientTransform="translate(27.1553 13.5098) rotate(-73.9775) scale(2.81095 2.82309)">
<stop stop-color="#00B359"/>
<stop offset="0.13" stop-color="#009148"/>
<stop offset="0.34" stop-color="#005E2F"/>
<stop offset="0.54" stop-color="#00351A"/>
<stop offset="0.73" stop-color="#00180C"/>
<stop offset="0.89" stop-color="#000603"/>
<stop offset="1"/>
</radialGradient>
<radialGradient id="paint8_radial_3_935" cx="0" cy="0" r="1" gradientUnits="userSpaceOnUse" gradientTransform="translate(21.7245 14.2816) rotate(-143.27) scale(3.87224 3.86669)">
<stop stop-color="#00B359"/>
<stop offset="0.13" stop-color="#009148"/>
<stop offset="0.34" stop-color="#005E2F"/>
<stop offset="0.54" stop-color="#00351A"/>
<stop offset="0.73" stop-color="#00180C"/>
<stop offset="0.89" stop-color="#000603"/>
<stop offset="1"/>
</radialGradient>
<radialGradient id="paint9_radial_3_935" cx="0" cy="0" r="1" gradientUnits="userSpaceOnUse" gradientTransform="translate(78.3622 23.5448) rotate(-71.4775) scale(2.4423 2.45222)">
<stop stop-color="#00B359"/>
<stop offset="0.13" stop-color="#009148"/>
<stop offset="0.34" stop-color="#005E2F"/>
<stop offset="0.54" stop-color="#00351A"/>
<stop offset="0.73" stop-color="#00180C"/>
<stop offset="0.89" stop-color="#000603"/>
<stop offset="1"/>
</radialGradient>
<radialGradient id="paint10_radial_3_935" cx="0" cy="0" r="1" gradientUnits="userSpaceOnUse" gradientTransform="translate(77.5533 11.6852) rotate(129.842) scale(3.63511 4.59266)">
<stop stop-color="#00C2FF" stop-opacity="0.87"/>
<stop offset="1" stop-opacity="0"/>
</radialGradient>
<radialGradient id="paint11_radial_3_935" cx="0" cy="0" r="1" gradientUnits="userSpaceOnUse" gradientTransform="translate(15.6123 11.001) rotate(-102.842) scale(4.17067 5.28684)">
<stop offset="0.1875" stop-color="#00C2FF" stop-opacity="0.87"/>
<stop offset="1" stop-opacity="0"/>
</radialGradient>
<radialGradient id="paint12_radial_3_935" cx="0" cy="0" r="1" gradientUnits="userSpaceOnUse" gradientTransform="translate(76.4608 74.7385) rotate(-110.193) scale(5.05659 6.02749)">
<stop stop-color="#03C3FF" stop-opacity="0.58"/>
<stop offset="1" stop-opacity="0"/>
</radialGradient>
<radialGradient id="paint13_radial_3_935" cx="0" cy="0" r="1" gradientUnits="userSpaceOnUse" gradientTransform="translate(14.7464 77.063) rotate(-54.748) scale(4.39693 6.35853)">
<stop stop-color="#03C3FF" stop-opacity="0.58"/>
<stop offset="1" stop-opacity="0"/>
</radialGradient>
<radialGradient id="paint14_radial_3_935" cx="0" cy="0" r="1" gradientUnits="userSpaceOnUse" gradientTransform="translate(10.0558 75.0159) rotate(-54.748) scale(1.92993 2.79093)">
<stop stop-color="#03C3FF" stop-opacity="0.58"/>
<stop offset="1" stop-opacity="0"/>
</radialGradient>
<radialGradient id="paint15_radial_3_935" cx="0" cy="0" r="1" gradientUnits="userSpaceOnUse" gradientTransform="translate(11.5336 13.1333) rotate(30.0433) scale(3.64138 4.58476)">
<stop stop-color="#00C2FF" stop-opacity="0.87"/>
<stop offset="1" stop-opacity="0"/>
</radialGradient>
<radialGradient id="paint16_radial_3_935" cx="0" cy="0" r="1" gradientUnits="userSpaceOnUse" gradientTransform="translate(76.4608 74.7385) rotate(-110.193) scale(5.05659 6.02749)">
<stop stop-color="#03C3FF" stop-opacity="0.58"/>
<stop offset="1" stop-opacity="0"/>
</radialGradient>
<radialGradient id="paint17_radial_3_935" cx="0" cy="0" r="1" gradientUnits="userSpaceOnUse" gradientTransform="translate(14.7464 77.063) rotate(-54.748) scale(4.39693 6.35853)">
<stop stop-color="#03C3FF" stop-opacity="0.58"/>
<stop offset="1" stop-opacity="0"/>
</radialGradient>
<radialGradient id="paint18_radial_3_935" cx="0" cy="0" r="1" gradientUnits="userSpaceOnUse" gradientTransform="translate(10.0558 75.0159) rotate(-54.748) scale(1.92993 2.79093)">
<stop stop-color="#03C3FF" stop-opacity="0.58"/>
<stop offset="1" stop-opacity="0"/>
</radialGradient>
<radialGradient id="paint19_radial_3_935" cx="0" cy="0" r="1" gradientUnits="userSpaceOnUse" gradientTransform="translate(12.5315 12.747) rotate(30.0433) scale(2.76785 3.48492)">
<stop stop-color="#00C2FF" stop-opacity="0.87"/>
<stop offset="1" stop-opacity="0"/>
</radialGradient>
<radialGradient id="paint20_radial_3_935" cx="0" cy="0" r="1" gradientUnits="userSpaceOnUse" gradientTransform="translate(43.1112 37.4495) rotate(-76.0157) scale(21.1159 27.5272)">
<stop stop-color="#009148"/>
<stop offset="1" stop-opacity="0"/>
</radialGradient>
</defs>
</svg>
